<svg width="2860" height="4096" viewBox="0 0 2860 4096" fill="none" xmlns="http://www.w3.org/2000/svg">
<path fill-rule="evenodd" clip-rule="evenodd" d="M1430 0C1430.94 0 1432.82 0.704385 1434.11 1.64357C1435.4 2.46535 1443.03 6.69166 1451.13 10.8006C1459.23 15.0269 1471.56 21.4837 1478.72 25.2405C1485.88 28.9972 1495.39 33.9279 1499.85 36.3932C1504.31 38.7412 1513.59 43.6719 1520.4 47.1938C1527.2 50.8331 1537.54 56.2334 1543.29 59.2858C1549.04 62.3381 1559.96 67.9732 1567.35 71.8473C1574.75 75.8388 1585.67 81.4739 1591.42 84.5262C1597.17 87.5786 1608.33 93.4484 1616.07 97.44C1623.82 101.549 1634.39 107.067 1639.55 109.767C1644.72 112.467 1653.99 117.398 1660.1 120.567C1666.2 123.854 1677.36 129.724 1684.75 133.598C1692.15 137.473 1703.54 143.342 1709.99 146.747C1716.45 150.151 1726.55 155.434 1732.3 158.487C1738.05 161.539 1748.62 167.057 1755.78 170.813C1762.94 174.57 1773.15 179.97 1778.67 182.905C1784.19 185.723 1796.28 192.18 1805.67 196.993C1815.06 201.924 1826.92 208.146 1832.09 210.963C1837.25 213.664 1845.94 218.242 1851.46 221.06C1856.97 223.877 1866.48 228.808 1872.59 232.095C1878.69 235.382 1889.84 241.252 1897.24 245.126C1904.64 249 1915.55 254.635 1921.31 257.688C1927.06 260.74 1936.69 265.788 1942.44 268.84C1948.19 271.893 1958.05 277.058 1964.16 280.228C1970.26 283.515 1981.06 289.15 1988.22 292.907C1995.38 296.664 2005.95 302.181 2011.7 305.234C2017.46 308.286 2027.55 313.569 2034.01 316.973C2040.46 320.378 2051.85 326.248 2059.25 330.122C2066.64 334.113 2077.21 339.631 2082.73 342.566C2088.25 345.384 2099.28 351.253 2107.38 355.48C2115.48 359.589 2125.81 364.989 2130.27 367.454C2134.73 369.92 2145.3 375.437 2153.75 379.781C2162.21 384.125 2172.77 389.642 2177.23 392.108C2181.69 394.456 2192.26 400.091 2200.71 404.435C2209.16 408.896 2220.2 414.765 2225.37 417.466C2230.53 420.048 2240.27 425.214 2247.08 428.736C2253.89 432.258 2265.16 438.245 2272.32 442.002C2279.49 445.758 2289.7 451.159 2295.22 454.094C2300.73 456.911 2311.18 462.429 2318.46 466.186C2325.62 470.06 2337.83 476.399 2345.35 480.391C2352.98 484.382 2363.42 489.783 2368.59 492.483C2373.76 495.3 2383.26 500.231 2389.72 503.635C2396.18 507.04 2405.69 511.971 2410.85 514.788C2416.02 517.488 2425.29 522.419 2431.4 525.589C2437.5 528.876 2449.12 534.981 2457.22 539.089C2465.32 543.316 2476.36 549.186 2481.88 552.003C2487.4 554.938 2497.61 560.338 2504.77 564.095C2511.93 567.852 2523.2 573.839 2530.01 577.361C2536.82 580.883 2548.68 587.222 2556.43 591.214C2564.17 595.323 2574.74 600.841 2579.9 603.541C2585.07 606.241 2592 609.763 2595.17 611.524C2598.45 613.285 2609.25 618.92 2619.23 624.203C2629.21 629.368 2640.83 635.473 2645.06 637.703C2649.29 640.051 2659.85 645.569 2668.54 650.03C2677.23 654.609 2688.85 660.713 2694.37 663.531C2699.88 666.466 2709.86 671.749 2716.67 675.271C2723.48 678.91 2733.81 684.31 2739.56 687.363C2745.32 690.415 2754.36 695.111 2759.52 697.928C2764.69 700.628 2775.02 706.029 2782.41 709.903C2789.81 713.777 2800.38 719.412 2805.89 722.23C2811.41 725.165 2821.39 730.447 2828.2 733.969C2835.01 737.609 2842.64 741.952 2845.22 743.713C2847.8 745.474 2851.21 748.761 2852.85 750.992C2854.5 753.34 2856.84 758.858 2858.14 763.554C2860.6 771.889 2860.6 771.889 2858.25 780.107C2856.96 784.685 2854.61 790.203 2852.97 792.668C2851.33 795.016 2847.8 798.303 2845.22 800.064C2842.64 801.825 2836.3 805.582 2831.13 808.282C2825.97 810.982 2816.22 816.148 2809.42 819.67C2802.61 823.309 2792.63 828.592 2787.11 831.409C2781.59 834.344 2771.38 839.745 2764.22 843.501C2757.06 847.258 2746.02 853.01 2739.56 856.415C2733.11 859.82 2722.54 865.337 2716.09 868.742C2709.63 872.146 2699.88 877.312 2694.37 880.247C2688.85 883.064 2677.81 888.934 2669.71 893.16C2661.61 897.269 2650.81 903.022 2645.65 905.722C2640.48 908.422 2629.45 914.292 2620.99 918.636C2612.54 922.979 2601.98 928.615 2597.51 930.962C2593.05 933.428 2585.07 937.654 2579.9 940.354C2574.74 942.937 2564.17 948.572 2556.43 952.564C2548.68 956.673 2536.23 963.129 2528.84 967.004C2521.44 970.878 2510.52 976.63 2504.77 979.682C2499.02 982.735 2488.69 988.135 2481.88 991.774C2475.07 995.296 2464.5 1000.81 2458.4 1004.1C2452.29 1007.27 2443.02 1012.2 2437.85 1014.9C2432.69 1017.48 2421.65 1023.35 2413.2 1027.82C2404.75 1032.16 2393.6 1038.15 2388.2 1040.96C2382.91 1043.66 2374.22 1048.36 2368.94 1051.06C2363.54 1053.88 2352.86 1059.51 2345.11 1063.62C2337.36 1067.61 2325.27 1073.95 2318.11 1077.71C2310.95 1081.47 2300.73 1086.87 2295.22 1089.68C2289.7 1092.62 2279.49 1098.02 2272.32 1101.78C2265.16 1105.53 2253.89 1111.52 2247.08 1115.04C2240.27 1118.56 2230.53 1123.73 2225.37 1126.31C2220.2 1129.01 2209.16 1134.88 2200.71 1139.34C2192.26 1143.69 2181.46 1149.44 2176.65 1152.02C2171.83 1154.6 2160.68 1160.36 2151.99 1164.94C2143.3 1169.4 2133.44 1174.56 2130.27 1176.32C2126.99 1178.08 2117.59 1183.13 2109.14 1187.48C2100.69 1191.82 2089.07 1197.92 2083.31 1200.98C2077.56 1204.03 2066.41 1209.9 2058.66 1213.89C2050.91 1217.88 2040.82 1223.28 2036.36 1225.63C2031.89 1228.1 2022.03 1233.26 2014.64 1237.02C2007.24 1240.89 1996.68 1246.53 1991.16 1249.34C1985.64 1252.28 1975.43 1257.68 1968.27 1261.44C1961.1 1265.19 1950.07 1271.06 1943.61 1274.35C1937.16 1277.75 1927.06 1283.04 1921.31 1286.09C1915.55 1289.14 1904.64 1294.78 1897.24 1298.65C1889.84 1302.53 1878.69 1308.4 1872.59 1311.68C1866.48 1314.97 1856.97 1319.9 1851.46 1322.72C1845.94 1325.54 1837.25 1330.11 1832.09 1332.81C1826.92 1335.63 1817.65 1340.45 1811.54 1343.73C1805.44 1346.9 1799.21 1350.19 1797.69 1351.01C1796.28 1351.83 1794.17 1352.89 1793.11 1353.48C1791.94 1353.95 1785.48 1357.35 1778.67 1360.87C1771.86 1364.51 1761.53 1369.91 1755.78 1372.96C1750.02 1376.02 1739.69 1381.42 1732.88 1385.06C1726.08 1388.58 1715.51 1394.1 1709.41 1397.38C1703.3 1400.67 1696.14 1404.31 1693.56 1405.6C1690.97 1406.89 1688.16 1408.42 1687.33 1409.24C1686.16 1410.3 1686.28 1410.77 1687.92 1411.82C1689.1 1412.53 1697.2 1416.87 1705.88 1421.33C1714.57 1425.91 1726.19 1432.02 1731.71 1434.83C1737.23 1437.77 1747.44 1443.17 1754.6 1446.92C1761.76 1450.68 1772.33 1456.2 1778.08 1459.25C1783.83 1462.3 1796.04 1468.64 1805.08 1473.46C1814.12 1478.15 1825.86 1484.26 1831.26 1487.07C1836.55 1489.89 1845.47 1494.59 1851.1 1497.52C1856.86 1500.46 1867.54 1506.09 1874.94 1509.97C1882.33 1513.84 1892.19 1519.12 1896.65 1521.47C1901.11 1523.94 1911.45 1529.34 1919.55 1533.45C1927.65 1537.67 1938.68 1543.54 1944.2 1546.36C1949.72 1549.3 1959.46 1554.46 1965.92 1557.87C1972.37 1561.27 1983.76 1567.26 1991.16 1571.13C1998.55 1575.01 2011 1581.58 2018.75 1585.57C2026.49 1589.68 2037.3 1595.32 2042.81 1598.13C2048.33 1601.07 2057.25 1605.76 2062.77 1608.58C2068.29 1611.52 2079.09 1617.15 2086.84 1621.26C2094.59 1625.25 2104.68 1630.53 2109.14 1633C2113.6 1635.47 2123.93 1640.87 2132.03 1644.97C2140.14 1649.2 2151.17 1655.07 2156.69 1657.89C2162.21 1660.82 2172.18 1666.11 2178.99 1669.63C2185.8 1673.27 2195.78 1678.55 2201.3 1681.48C2206.82 1684.3 2216.8 1689.59 2223.6 1693.11C2230.41 1696.63 2237.22 1700.27 2238.87 1701.09C2240.51 1701.91 2242.62 1703.09 2243.56 1703.56C2244.5 1704.14 2249.31 1706.61 2254.13 1709.19C2258.94 1711.66 2266.92 1715.76 2271.74 1718.35C2276.55 1720.93 2286.29 1726.1 2293.46 1729.85C2300.62 1733.61 2310.83 1739.01 2316.35 1741.94C2321.87 1744.88 2333.49 1750.98 2342.18 1755.45C2350.86 1760.02 2362.84 1766.25 2368.59 1769.3C2374.34 1772.35 2383.38 1777.05 2388.55 1779.63C2393.71 1782.33 2402.17 1786.67 2407.33 1789.49C2412.5 1792.31 2424.35 1798.65 2433.75 1803.46C2443.14 1808.27 2455.23 1814.73 2460.75 1817.55C2466.26 1820.48 2476.24 1825.77 2483.05 1829.29C2489.86 1832.93 2500.19 1838.33 2505.94 1841.38C2511.7 1844.43 2522.03 1849.83 2528.84 1853.47C2535.65 1856.99 2542.1 1860.4 2543.28 1860.87C2544.33 1861.46 2546.45 1862.51 2547.86 1863.33C2549.38 1864.16 2554.78 1866.97 2559.95 1869.67C2565.11 1872.37 2573.8 1876.95 2579.32 1879.89C2584.84 1882.82 2593.52 1887.4 2598.69 1890.1C2603.85 1892.8 2612.89 1897.61 2618.65 1900.67C2624.4 1903.72 2636.37 1909.94 2645.06 1914.52C2653.75 1918.98 2665.72 1925.2 2671.47 1928.25C2677.23 1931.31 2687.79 1936.82 2694.95 1940.58C2702.11 1944.34 2712.68 1949.86 2718.43 1952.91C2724.19 1955.96 2733.23 1960.66 2738.39 1963.47C2743.56 1966.17 2753.89 1971.57 2761.28 1975.45C2768.68 1979.32 2779.24 1984.96 2784.76 1987.78C2790.28 1990.71 2800.49 1996.11 2807.65 1999.87C2814.82 2003.62 2824.79 2008.91 2829.96 2011.61C2835.13 2014.19 2841.47 2017.83 2844.05 2019.59C2846.63 2021.35 2850.27 2024.76 2852.27 2027.22C2854.26 2029.8 2856.73 2035.09 2858.02 2039.78C2860.13 2047.65 2860.13 2048.35 2858.14 2055.63C2857.08 2059.86 2854.73 2065.14 2853.09 2067.61C2851.33 2069.95 2847.8 2073.36 2845.22 2075.24C2842.64 2077.11 2833.72 2082.28 2825.26 2086.74C2816.81 2091.08 2804.49 2097.66 2797.68 2101.18C2790.87 2104.7 2781.12 2109.87 2775.96 2112.57C2770.79 2115.27 2761.28 2120.32 2754.83 2123.72C2748.37 2127.13 2737.57 2132.88 2730.76 2136.4C2723.95 2139.92 2714.21 2144.97 2709.04 2147.67C2703.88 2150.37 2691.67 2156.71 2682.04 2161.76C2672.3 2166.92 2659.97 2173.38 2654.45 2176.32C2648.93 2179.13 2638.96 2184.42 2632.15 2188.06C2625.34 2191.58 2616.06 2196.51 2611.6 2198.86C2607.14 2201.32 2597.04 2206.6 2589.3 2210.6C2581.55 2214.7 2570.4 2220.46 2564.64 2223.51C2558.89 2226.56 2548.79 2231.84 2542.34 2235.25C2535.88 2238.65 2525.31 2244.17 2518.86 2247.58C2512.4 2250.98 2500.78 2256.97 2493.03 2261.08C2485.28 2265.07 2474.72 2270.7 2469.55 2273.4C2464.39 2276.1 2455.35 2280.92 2449.59 2283.97C2443.84 2287.14 2433.75 2292.3 2427.29 2295.71C2420.83 2299.11 2410.74 2304.4 2404.98 2307.45C2399.23 2310.5 2387.61 2316.61 2379.16 2320.95C2370.7 2325.29 2359.43 2331.16 2353.92 2334.1C2348.4 2337.03 2337.6 2342.79 2329.85 2346.78C2322.1 2350.77 2311.3 2356.52 2305.78 2359.46C2300.26 2362.27 2289.7 2367.91 2282.3 2371.78C2274.91 2375.66 2264.58 2381.06 2259.41 2383.76C2254.25 2386.57 2245.21 2391.27 2239.45 2394.32C2233.7 2397.38 2223.13 2402.89 2215.97 2406.65C2208.81 2410.41 2198.25 2415.92 2192.49 2418.98C2186.74 2422.03 2174.77 2428.25 2166.08 2432.71C2157.39 2437.29 2147.53 2442.46 2144.36 2444.22C2141.07 2445.98 2130.27 2451.73 2120.29 2456.9C2110.32 2462.06 2099.4 2467.7 2096.23 2469.46C2092.94 2471.22 2086.13 2474.86 2080.97 2477.56C2075.8 2480.26 2070.4 2483.08 2068.87 2483.9C2067.47 2484.72 2065.35 2485.78 2064.18 2486.36C2063.12 2486.83 2056.67 2490.24 2049.86 2493.76C2043.05 2497.4 2032.72 2502.8 2026.96 2505.85C2021.21 2508.9 2010.88 2514.3 2004.07 2517.94C1997.26 2521.46 1987.28 2526.75 1981.77 2529.68C1976.25 2532.5 1965.21 2538.37 1957.11 2542.6C1949.01 2546.7 1936.92 2553.16 1930.11 2556.68C1923.3 2560.32 1913.56 2565.49 1908.39 2568.19C1903.23 2571.01 1894.78 2575.35 1889.61 2578.05C1884.44 2580.63 1875.4 2585.33 1869.65 2588.38C1863.9 2591.43 1857.91 2594.6 1856.39 2595.42C1854.98 2596.25 1852.86 2597.3 1851.69 2597.89C1850.63 2598.36 1844.18 2601.76 1837.37 2605.29C1830.56 2608.93 1820.23 2614.33 1814.48 2617.38C1808.72 2620.43 1798.39 2625.83 1791.58 2629.47C1784.77 2632.99 1774.8 2638.27 1769.28 2641.21C1763.76 2644.03 1753.19 2649.66 1745.8 2653.54C1738.4 2657.41 1726.78 2663.52 1719.97 2667.04C1713.16 2670.68 1702.83 2676.08 1697.08 2679.13C1691.33 2682.18 1686.63 2685.12 1686.63 2685.7C1686.75 2686.17 1690.74 2688.64 1695.43 2691.1C1700.25 2693.57 1710.23 2698.85 1717.62 2702.73C1725.02 2706.6 1738.28 2713.53 1746.97 2718.11C1755.66 2722.68 1767.28 2728.79 1772.8 2731.61C1778.32 2734.54 1788.06 2739.59 1794.52 2742.99C1800.97 2746.28 1811.07 2751.56 1816.82 2754.73C1822.58 2757.79 1831.62 2762.6 1836.78 2765.3C1841.95 2768 1852.28 2773.52 1859.67 2777.39C1867.07 2781.27 1878.46 2787.13 1884.91 2790.54C1891.37 2793.94 1902.17 2799.58 1908.98 2803.22C1915.79 2806.74 1926.82 2812.61 1933.63 2816.13C1940.44 2819.65 1950.19 2824.82 1955.35 2827.52C1960.52 2830.22 1970.5 2835.5 1977.66 2839.26C1984.82 2843.02 1995.03 2848.42 2000.55 2851.23C2006.07 2854.17 2016.05 2859.45 2022.86 2863.09C2029.66 2866.61 2040 2872.01 2045.75 2875.07C2051.5 2878.12 2063.12 2884.22 2071.58 2888.57C2080.03 2893.03 2091.65 2899.01 2097.4 2902.07C2103.16 2905.12 2113.02 2910.28 2119.12 2913.45C2125.23 2916.62 2135.32 2921.91 2141.43 2925.19C2147.53 2928.48 2158.68 2934.23 2166.08 2938.11C2173.48 2941.98 2184.04 2947.62 2189.56 2950.43C2195.08 2953.37 2205.06 2958.65 2211.86 2962.17C2218.67 2965.81 2229 2971.21 2234.76 2974.27C2240.51 2977.32 2250.84 2982.72 2257.65 2986.36C2264.46 2989.88 2270.92 2993.29 2272.09 2993.75C2273.15 2994.34 2275.26 2995.4 2276.67 2996.22C2278.19 2997.04 2283.59 2999.86 2288.76 3002.56C2293.93 3005.26 2303.43 3010.19 2309.89 3013.59C2316.35 3017 2325.86 3022.05 2331.02 3024.75C2336.19 3027.45 2345.46 3032.38 2351.57 3035.55C2357.67 3038.84 2368.82 3044.71 2376.22 3048.58C2383.62 3052.45 2394.53 3058.09 2400.29 3061.14C2406.04 3064.19 2416.14 3069.48 2422.59 3072.88C2429.05 3076.17 2440.08 3082.04 2447.25 3085.79C2454.41 3089.55 2464.62 3094.95 2470.14 3097.89C2475.66 3100.7 2487.28 3106.81 2495.97 3111.39C2504.65 3115.97 2516.63 3122.3 2522.38 3125.24C2528.13 3128.29 2536.35 3132.64 2540.58 3134.87C2544.8 3136.98 2553.26 3141.44 2559.36 3144.73C2565.46 3148.01 2577.67 3154.35 2586.36 3158.93C2595.05 3163.39 2607.02 3169.62 2612.78 3172.67C2618.53 3175.72 2628.15 3180.77 2633.91 3183.82C2639.66 3186.87 2650.23 3192.39 2657.39 3196.15C2664.55 3199.9 2674.06 3204.95 2678.52 3207.3C2682.98 3209.77 2693.08 3215.05 2700.82 3219.04C2708.57 3223.03 2719.72 3228.9 2725.48 3231.95C2731.23 3235.01 2742.38 3240.88 2750.13 3244.87C2757.88 3248.86 2768.68 3254.61 2774.2 3257.55C2779.71 3260.36 2790.28 3266 2797.68 3269.76C2805.07 3273.63 2817.28 3280.09 2824.68 3283.96C2832.07 3287.84 2840.64 3292.65 2843.7 3294.64C2846.63 3296.64 2850.62 3300.16 2852.5 3302.51C2854.5 3304.98 2856.73 3310.14 2858.02 3315.42C2860.25 3323.99 2860.25 3324.23 2858.02 3332.21C2856.84 3336.67 2854.26 3342.54 2852.27 3345.01C2850.27 3347.59 2846.63 3351.11 2844.05 3352.87C2841.47 3354.63 2835.13 3358.27 2829.96 3360.97C2824.79 3363.67 2819.75 3366.26 2818.81 3366.84C2817.87 3367.43 2814.93 3368.96 2812.35 3370.25C2809.77 3371.54 2802.37 3375.3 2795.92 3378.7C2789.46 3382.11 2780.18 3387.04 2775.37 3389.62C2770.56 3392.08 2760.46 3397.37 2753.07 3401.36C2745.67 3405.23 2735.34 3410.63 2730.17 3413.33C2725.01 3416.03 2713.97 3421.79 2705.52 3426.25C2697.07 3430.59 2686.5 3436.23 2682.04 3438.57C2677.58 3441.04 2668.07 3446.09 2660.91 3449.73C2653.75 3453.48 2643.53 3458.88 2638.02 3461.7C2632.5 3464.52 2621.7 3470.15 2613.95 3474.15C2606.2 3478.25 2593.76 3484.71 2586.36 3488.7C2578.97 3492.58 2568.63 3498.09 2563.47 3500.79C2558.3 3503.49 2548.56 3508.66 2541.75 3512.18C2534.94 3515.82 2522.85 3522.16 2514.75 3526.27C2506.65 3530.5 2496.32 3535.9 2491.86 3538.36C2487.4 3540.71 2478.12 3545.64 2471.31 3549.28C2464.5 3552.8 2453.7 3558.44 2447.25 3561.84C2440.79 3565.25 2431.28 3570.29 2426.11 3572.99C2420.95 3575.69 2410.97 3580.98 2403.81 3584.73C2396.65 3588.49 2385.38 3594.36 2378.57 3598C2371.76 3601.52 2360.49 3607.51 2353.33 3611.15C2346.17 3614.9 2335.37 3620.54 2329.26 3623.71C2323.16 3627 2312.36 3632.63 2305.2 3636.39C2298.03 3640.15 2287.47 3645.66 2281.72 3648.72C2275.96 3651.77 2266.34 3656.82 2260.58 3659.87C2254.83 3662.92 2244.5 3668.32 2237.69 3671.96C2230.88 3675.48 2220.9 3680.76 2215.39 3683.7C2209.87 3686.52 2198.83 3692.39 2190.73 3696.61C2182.63 3700.72 2172.3 3706.12 2167.84 3708.59C2163.38 3711.05 2152.23 3716.81 2143.19 3721.5C2134.15 3726.2 2123 3732.07 2118.53 3734.42C2114.07 3736.88 2106.09 3741.11 2100.92 3743.81C2095.76 3746.39 2085.19 3752.03 2077.45 3756.02C2069.7 3760.13 2057.84 3766.35 2051.03 3769.87C2044.22 3773.39 2032.95 3779.38 2025.79 3783.14C2018.63 3786.89 2008.42 3792.29 2002.9 3795.23C1997.38 3798.05 1986.34 3803.91 1978.24 3808.14C1970.14 3812.25 1959.34 3817.89 1954.18 3820.7C1949.01 3823.4 1939.74 3828.33 1933.63 3831.5C1927.53 3834.79 1917.2 3840.19 1910.74 3843.6C1904.28 3847 1894.78 3851.93 1889.61 3854.75C1884.44 3857.45 1874.11 3862.85 1866.72 3866.72C1859.32 3870.6 1846.64 3877.29 1838.54 3881.4C1830.44 3885.62 1819.05 3891.61 1813.3 3894.66C1807.55 3897.72 1797.22 3903.12 1790.41 3906.76C1783.6 3910.28 1773.03 3915.79 1766.93 3919.08C1760.83 3922.25 1751.55 3927.18 1746.39 3929.88C1741.22 3932.47 1731.48 3937.63 1724.67 3941.27C1717.86 3944.79 1706.59 3950.78 1699.43 3954.54C1692.27 3958.29 1682.29 3963.58 1677.12 3966.28C1671.96 3968.98 1661.39 3974.49 1653.64 3978.6C1645.89 3982.59 1634.74 3988.46 1628.99 3991.52C1623.24 3994.57 1612.32 4000.2 1604.92 4004.2C1597.53 4008.07 1586.61 4013.7 1580.86 4016.76C1575.1 4019.81 1564.18 4025.56 1556.79 4029.44C1549.39 4033.31 1539.06 4038.71 1533.9 4041.41C1528.73 4044.11 1518.99 4049.28 1512.18 4052.8C1505.37 4056.44 1494.8 4061.95 1488.7 4065.12C1482.59 4068.41 1470.74 4074.63 1462.28 4078.98C1453.83 4083.32 1443.15 4088.96 1430 4096L1421.43 4091.42C1416.85 4088.96 1406.17 4083.32 1397.72 4078.98C1389.26 4074.63 1377.41 4068.41 1371.3 4065.12C1365.2 4061.95 1354.63 4056.44 1347.82 4052.8C1341.01 4049.28 1331.27 4044.11 1326.1 4041.41C1320.94 4038.71 1310.61 4033.31 1303.21 4029.44C1295.82 4025.56 1285.01 4019.81 1279.14 4016.76C1273.27 4013.7 1262.47 4008.07 1255.08 4004.2C1247.68 4000.2 1236.88 3994.57 1231.01 3991.52C1225.14 3988.46 1214.11 3982.59 1206.36 3978.6C1198.61 3974.49 1188.04 3968.98 1182.88 3966.28C1177.71 3963.58 1167.62 3958.29 1160.57 3954.54C1153.53 3950.78 1142.14 3944.79 1135.33 3941.27C1128.52 3937.63 1118.78 3932.47 1113.61 3929.88C1108.45 3927.18 1099.17 3922.25 1093.07 3919.08C1086.97 3915.79 1076.4 3910.28 1069.59 3906.76C1062.78 3903.12 1052.57 3897.72 1046.7 3894.66C1040.83 3891.61 1029.56 3885.62 1021.46 3881.4C1013.36 3877.29 1000.68 3870.6 993.283 3866.72C985.887 3862.85 975.556 3857.45 970.39 3854.75C965.225 3851.93 955.716 3847 949.259 3843.6C942.802 3840.19 933.293 3835.26 928.127 3832.44C922.962 3829.74 913.687 3824.81 907.583 3821.64C901.478 3818.35 889.856 3812.25 881.755 3808.14C873.655 3803.91 862.62 3798.05 857.102 3795.23C851.584 3792.29 841.253 3786.89 834.209 3783.14C827.166 3779.38 815.778 3773.39 808.969 3769.87C802.16 3766.35 790.303 3760.13 782.555 3756.02C774.807 3752.03 764.241 3746.39 759.075 3743.81C753.91 3741.11 745.927 3736.88 741.466 3734.42C737.005 3732.07 725.852 3726.2 716.812 3721.5C707.773 3716.81 696.62 3711.05 692.159 3708.59C687.698 3706.12 677.367 3700.72 669.267 3696.61C661.166 3692.39 650.131 3686.52 644.613 3683.7C639.095 3680.76 629.117 3675.48 622.308 3671.96C615.499 3668.32 605.285 3662.92 599.415 3659.87C593.545 3656.82 584.154 3651.77 578.284 3648.72C572.414 3645.66 561.848 3640.15 554.804 3636.39C547.761 3632.63 536.843 3627 530.738 3623.71C524.633 3620.54 513.715 3614.9 506.672 3611.15C499.628 3607.51 488.24 3601.52 481.431 3598C474.622 3594.36 463.235 3588.49 456.191 3584.73C449.147 3580.98 439.051 3575.69 433.885 3572.99C428.72 3570.29 419.211 3565.25 412.754 3561.84C406.297 3558.44 395.496 3552.8 388.687 3549.28C381.878 3545.64 372.604 3540.71 368.143 3538.36C363.682 3535.9 353.351 3530.5 345.251 3526.27C337.15 3522.16 325.058 3515.82 318.249 3512.18C311.44 3508.66 301.696 3503.49 296.531 3500.79C291.365 3498.09 281.034 3492.58 273.638 3488.7C266.242 3484.71 253.798 3478.25 246.05 3474.15C238.302 3470.15 227.501 3464.52 221.984 3461.7C216.466 3458.88 206.135 3453.48 199.091 3449.73C192.047 3446.09 182.538 3441.04 177.96 3438.57C173.381 3436.23 162.815 3430.59 154.48 3426.25C146.145 3421.79 134.992 3416.03 129.827 3413.33C124.661 3410.63 114.33 3405.23 106.934 3401.36C99.5384 3397.37 89.4422 3392.08 84.6289 3389.62C79.8156 3387.04 70.5413 3382.11 64.0844 3378.7C57.6276 3375.3 50.2316 3371.54 47.6488 3370.25C45.0661 3368.96 42.1312 3367.43 41.192 3366.84C40.2528 3366.26 35.2047 3363.67 30.0393 3360.97C24.8738 3358.27 18.5343 3354.63 15.9516 3352.87C13.3689 3351.11 9.61216 3347.59 7.7338 3345.01C5.85545 3342.54 3.15532 3336.67 1.98134 3332.21C-0.2492 3324.23 -0.2492 3323.99 1.98134 3315.42C3.27271 3310.14 5.50326 3304.98 7.49901 3302.51C9.37736 3300.16 13.3689 3296.64 16.3038 3294.64C19.3561 3292.65 27.9261 3287.84 35.3221 3283.96C42.7181 3280.09 54.9274 3273.63 62.3235 3269.76C69.7195 3266 80.2852 3260.36 85.8029 3257.55C91.3206 3254.61 102.121 3248.86 109.869 3244.87C117.618 3240.88 128.653 3235.01 134.523 3231.95C140.393 3228.9 151.428 3223.03 159.176 3219.04C166.924 3215.05 176.903 3209.77 181.482 3207.3C186.06 3204.95 195.569 3199.9 202.613 3196.15C209.657 3192.39 220.223 3186.87 226.092 3183.82C231.962 3180.77 241.354 3175.72 247.224 3172.67C253.094 3169.62 264.951 3163.39 273.638 3158.93C282.326 3154.35 294.535 3148.01 300.64 3144.73C306.744 3141.44 315.197 3136.98 319.423 3134.87C323.649 3132.64 331.75 3128.29 337.62 3125.24C343.49 3122.3 355.347 3115.97 364.034 3111.39C372.721 3106.81 384.344 3100.7 389.861 3097.89C395.379 3094.95 405.71 3089.55 412.754 3085.79C419.798 3082.04 430.95 3076.17 437.407 3072.88C443.864 3069.48 453.843 3064.19 459.713 3061.14C465.583 3058.09 476.383 3052.45 483.779 3048.58C491.175 3044.71 502.328 3038.84 508.433 3035.55C514.537 3032.38 523.812 3027.45 528.977 3024.75C534.142 3022.05 543.652 3017 550.108 3013.59C556.565 3010.19 566.075 3005.26 571.24 3002.56C576.405 2999.86 581.806 2997.04 583.332 2996.22C584.741 2995.4 586.854 2994.34 587.91 2993.75C589.084 2993.29 595.541 2989.88 602.35 2986.36C609.159 2982.72 619.373 2977.32 625.243 2974.27C631.112 2971.21 641.326 2965.81 648.135 2962.17C654.944 2958.65 664.923 2953.37 670.441 2950.43C675.958 2947.62 686.524 2941.98 693.92 2938.11C701.316 2934.23 712.469 2928.48 718.573 2925.19C724.678 2921.91 734.774 2916.62 740.879 2913.45C746.983 2910.28 756.727 2905.12 762.597 2902.07C768.467 2899.01 779.972 2893.03 788.425 2888.57C796.877 2884.22 808.382 2878.12 814.252 2875.07C820.122 2872.01 830.335 2866.61 837.144 2863.09C843.953 2859.45 853.932 2854.17 859.45 2851.23C864.968 2848.42 875.298 2843.02 882.342 2839.26C889.386 2835.5 899.482 2830.22 904.648 2827.52C909.813 2824.82 919.557 2819.65 926.366 2816.13C933.175 2812.61 944.211 2806.74 951.02 2803.22C957.829 2799.58 968.629 2793.94 975.086 2790.54C981.543 2787.13 992.93 2781.27 1000.33 2777.39C1007.72 2773.52 1018.05 2768 1023.22 2765.3C1028.38 2762.6 1037.31 2757.79 1043.18 2754.73C1049.05 2751.56 1059.02 2746.28 1065.48 2742.99C1071.94 2739.59 1081.68 2734.54 1087.2 2731.61C1092.72 2728.79 1104.34 2722.68 1113.03 2718.11C1121.72 2713.53 1134.98 2706.6 1142.38 2702.73C1149.77 2698.85 1159.75 2693.57 1164.57 2691.1C1169.26 2688.64 1173.14 2686.17 1173.02 2685.47C1172.9 2684.76 1168.2 2681.83 1162.57 2678.89C1156.93 2675.96 1146.84 2670.68 1140.03 2667.04C1133.22 2663.52 1121.6 2657.41 1114.2 2653.54C1106.81 2649.66 1096.24 2644.03 1090.72 2641.21C1085.2 2638.27 1075.23 2632.99 1068.42 2629.47C1061.61 2625.83 1051.39 2620.43 1045.52 2617.38C1039.65 2614.33 1029.44 2608.93 1022.63 2605.29C1015.82 2601.76 1009.37 2598.36 1008.19 2597.89C1007.14 2597.3 1005.02 2596.25 1003.5 2595.42C1002.09 2594.6 996.218 2591.43 990.348 2588.38C984.478 2585.33 975.556 2580.63 970.39 2578.05C965.225 2575.35 956.772 2571.01 951.607 2568.19C946.441 2565.49 936.697 2560.32 929.888 2556.68C923.079 2553.16 910.987 2546.7 902.887 2542.6C894.786 2538.37 883.751 2532.5 878.233 2529.68C872.716 2526.75 862.737 2521.46 855.928 2517.94C849.119 2514.3 838.905 2508.9 833.036 2505.85C827.166 2502.8 816.952 2497.4 810.143 2493.76C803.334 2490.24 796.877 2486.83 795.703 2486.36C794.647 2485.78 792.534 2484.72 791.007 2483.9C789.599 2483.08 784.198 2480.26 779.033 2477.56C773.867 2474.86 766.941 2471.22 763.771 2469.46C760.484 2467.7 749.684 2462.06 739.705 2456.9C729.726 2451.73 718.808 2445.98 715.638 2444.22C712.351 2442.46 702.607 2437.29 693.92 2432.71C685.233 2428.25 673.375 2422.03 667.506 2418.98C661.636 2415.92 651.07 2410.41 644.026 2406.65C636.982 2402.89 626.417 2397.38 620.547 2394.32C614.677 2391.27 605.755 2386.57 600.589 2383.76C595.424 2381.06 585.093 2375.66 577.697 2371.78C570.301 2367.91 559.735 2362.27 554.217 2359.46C548.7 2356.52 537.899 2350.77 530.151 2346.78C522.403 2342.79 511.602 2337.03 506.085 2334.1C500.567 2331.16 489.297 2325.29 480.844 2320.95C472.392 2316.61 460.887 2310.5 455.017 2307.45C449.147 2304.4 439.168 2299.11 432.711 2295.71C426.255 2292.3 416.276 2287.14 410.406 2283.97C404.536 2280.92 395.614 2276.1 390.448 2273.4C385.283 2270.7 374.717 2265.07 366.969 2261.08C359.221 2256.97 347.598 2250.98 341.142 2247.58C334.685 2244.17 324.119 2238.65 317.662 2235.25C311.205 2231.84 301.227 2226.56 295.357 2223.51C289.487 2220.46 278.452 2214.7 270.703 2210.6C262.955 2206.6 252.859 2201.32 248.398 2198.86C243.937 2196.51 234.662 2191.58 227.853 2188.06C221.044 2184.42 211.066 2179.13 205.548 2176.32C200.03 2173.38 187.586 2166.92 177.96 2161.76C168.216 2156.71 156.124 2150.37 150.958 2147.67C145.793 2144.97 136.049 2139.92 129.24 2136.4C122.431 2132.88 112.452 2127.6 106.934 2124.66C101.417 2121.73 91.9075 2116.68 85.8029 2113.51C79.6982 2110.22 69.1325 2104.7 62.3235 2101.18C55.5144 2097.66 43.0703 2091.08 34.7351 2086.74C26.3999 2082.28 17.3604 2077.11 14.7776 2075.24C12.1949 2073.36 8.67298 2069.95 6.91202 2067.61C5.26846 2065.14 2.92052 2059.86 1.86395 2055.63C-0.131803 2048.35 -0.131803 2047.65 1.98134 2039.78C3.27271 2035.09 5.73805 2029.8 7.7338 2027.22C9.61216 2024.76 13.3689 2021.35 15.9516 2019.59C18.5343 2017.83 24.8738 2014.19 30.0393 2011.61C35.2047 2008.91 45.3009 2003.62 52.3447 1999.87C59.3885 1996.11 69.7195 1990.71 75.2371 1987.78C80.7548 1984.96 91.3206 1979.32 98.7166 1975.45C106.113 1971.57 116.444 1966.17 121.609 1963.47C126.774 1960.66 135.697 1955.96 141.567 1952.91C147.436 1949.86 158.002 1944.34 165.046 1940.58C172.09 1936.82 182.656 1931.31 188.525 1928.25C194.395 1925.2 206.252 1918.98 214.94 1914.52C223.627 1909.94 235.484 1903.72 241.354 1900.67C247.224 1897.61 256.146 1892.8 261.312 1890.1C266.477 1887.4 274.93 1882.94 280.095 1880.24C285.261 1877.42 293.948 1872.84 299.466 1870.03C304.983 1867.09 310.618 1864.16 312.027 1863.33C313.553 1862.51 315.666 1861.46 316.723 1860.87C317.897 1860.4 324.354 1856.99 331.163 1853.47C337.972 1849.83 348.185 1844.43 354.055 1841.38C359.925 1838.33 370.139 1832.93 376.948 1829.29C383.757 1825.77 393.736 1820.48 399.253 1817.55C404.771 1814.73 416.863 1808.27 426.255 1803.46C435.646 1798.65 447.503 1792.31 452.669 1789.49C457.834 1786.67 466.287 1782.33 471.452 1779.63C476.618 1777.05 485.54 1772.35 491.41 1769.3C497.28 1766.25 509.137 1760.02 517.824 1755.45C526.512 1750.98 538.134 1744.88 543.652 1741.94C549.169 1739.01 559.5 1733.61 566.544 1729.85C573.588 1726.1 583.449 1720.93 588.263 1718.35C593.076 1715.76 601.059 1711.66 605.872 1709.19C610.685 1706.61 615.499 1704.14 616.438 1703.56C617.377 1703.09 619.49 1701.91 621.134 1701.09C622.777 1700.27 629.586 1696.63 636.395 1693.11C643.204 1689.59 653.183 1684.3 658.701 1681.48C664.218 1678.55 674.197 1673.27 681.006 1669.63C687.815 1666.11 697.794 1660.82 703.312 1657.89C708.829 1655.07 719.865 1649.2 727.965 1644.97C736.065 1640.87 746.396 1635.47 750.858 1633C755.319 1630.53 765.415 1625.25 773.163 1621.26C780.911 1617.15 791.712 1611.52 797.229 1608.58C802.747 1605.76 811.669 1601.07 817.187 1598.13C822.705 1595.32 833.505 1589.68 841.253 1585.57C849.002 1581.58 861.446 1575.01 868.842 1571.13C876.238 1567.26 887.625 1561.27 894.082 1557.87C900.539 1554.46 910.283 1549.3 915.8 1546.36C921.318 1543.54 932.353 1537.67 940.454 1533.45C948.554 1529.34 958.885 1523.94 963.346 1521.47C967.807 1519.12 977.669 1513.84 985.065 1509.97C992.461 1506.09 1003.14 1500.46 1008.9 1497.52C1014.53 1494.59 1023.45 1489.89 1028.74 1487.07C1034.14 1484.26 1045.88 1478.15 1054.92 1473.46C1063.96 1468.64 1076.05 1462.3 1081.92 1459.25C1087.79 1456.2 1098.35 1450.68 1105.4 1446.92C1112.44 1443.17 1122.77 1437.77 1128.29 1434.83C1133.81 1432.02 1145.43 1425.91 1154.12 1421.33C1162.8 1416.87 1170.9 1412.53 1172.08 1411.82C1173.72 1410.77 1173.84 1410.3 1172.67 1409.24C1171.84 1408.42 1169.03 1406.89 1166.44 1405.6C1163.86 1404.31 1156.7 1400.67 1150.59 1397.38C1144.49 1394.1 1133.92 1388.58 1127.12 1385.06C1120.31 1381.42 1110.09 1376.02 1104.22 1372.96C1098.35 1369.91 1088.14 1364.51 1081.33 1360.87C1074.52 1357.35 1068.06 1353.95 1066.89 1353.48C1065.83 1352.89 1063.72 1351.83 1062.19 1351.01C1060.79 1350.19 1054.56 1346.9 1048.46 1343.73C1042.35 1340.45 1033.08 1335.63 1027.91 1332.81C1022.75 1330.11 1014.06 1325.54 1008.54 1322.72C1003.03 1319.9 993.517 1314.97 987.413 1311.68C981.308 1308.4 970.155 1302.53 962.759 1298.65C955.363 1294.78 944.563 1289.14 938.693 1286.09C932.823 1283.04 922.844 1277.75 916.387 1274.35C909.931 1271.06 898.778 1265.19 891.734 1261.44C884.69 1257.68 874.359 1252.28 868.842 1249.34C863.324 1246.53 852.758 1240.89 845.362 1237.02C837.966 1233.26 828.105 1228.1 823.644 1225.63C819.183 1223.28 809.087 1217.88 801.338 1213.89C793.59 1209.9 782.555 1204.03 776.685 1200.98C770.815 1197.92 759.31 1191.82 750.858 1187.48C742.405 1183.13 732.896 1178.08 729.726 1176.32C726.439 1174.56 716.695 1169.4 708.008 1164.94C699.32 1160.36 688.167 1154.6 683.354 1152.02C678.541 1149.44 667.74 1143.69 659.288 1139.34C650.835 1134.88 639.8 1129.01 634.634 1126.31C629.469 1123.73 619.725 1118.56 612.916 1115.04C606.107 1111.52 594.719 1105.53 587.676 1101.78C580.632 1098.02 570.301 1092.62 564.783 1089.68C559.265 1086.87 548.817 1081.35 541.538 1077.59C534.377 1073.72 522.168 1067.38 514.537 1063.39C507.024 1059.4 496.458 1053.88 491.058 1051.06C485.775 1048.36 477.087 1043.66 471.687 1040.96C466.404 1038.15 455.252 1032.16 446.799 1027.82C438.346 1023.35 427.311 1017.48 422.146 1014.9C416.98 1012.2 407.706 1007.27 401.601 1004.1C395.496 1000.81 384.931 995.296 378.122 991.774C371.313 988.135 361.099 982.735 355.229 979.682C349.359 976.63 338.559 970.878 331.163 967.004C323.767 963.129 311.323 956.673 303.575 952.564C295.826 948.572 285.261 942.937 280.095 940.354C274.93 937.654 266.947 933.428 262.486 930.962C258.024 928.615 247.459 922.979 239.006 918.636C230.554 914.292 219.518 908.422 214.353 905.722C209.187 903.022 198.387 897.269 190.286 893.16C182.186 888.934 171.151 883.064 165.633 880.247C160.115 877.312 150.371 872.146 143.914 868.742C137.458 865.337 126.892 859.82 120.435 856.415C113.978 853.01 102.825 847.258 95.7816 843.501C88.7378 839.745 78.4069 834.344 72.8892 831.409C67.3715 828.592 57.3928 823.309 50.5838 819.67C43.7747 816.148 34.0308 810.982 28.8653 808.282C23.6998 805.582 17.3604 801.825 14.7776 800.182C12.1949 798.421 8.79038 795.016 7.14682 792.786C5.50326 790.438 3.15532 784.92 1.86395 780.224C-0.601392 771.889 -0.601392 771.889 1.74655 763.671C3.03792 759.092 5.38586 753.575 7.02942 751.109C8.67298 748.761 12.1949 745.474 14.7776 743.713C17.3604 741.952 24.9912 737.609 31.8002 733.969C38.6092 730.447 48.588 725.165 54.1057 722.23C59.6233 719.412 70.1891 713.777 77.5851 709.903C84.9811 706.029 95.3121 700.628 100.478 697.928C105.643 695.111 114.565 690.415 120.435 687.363C126.305 684.31 136.518 678.91 143.327 675.271C150.137 671.749 160.115 666.466 165.633 663.531C171.151 660.713 182.773 654.609 191.46 650.03C200.148 645.569 210.713 640.051 214.94 637.703C219.166 635.473 230.788 629.368 240.767 624.203C250.746 618.92 261.664 613.285 264.833 611.524C268.003 609.763 274.93 606.241 280.095 603.541C285.261 600.841 295.826 595.323 303.575 591.214C311.323 587.222 323.18 580.883 329.989 577.361C336.798 573.839 348.185 567.852 355.229 564.095C362.273 560.338 372.604 554.938 378.122 552.003C383.639 549.186 394.675 543.316 402.775 539.089C410.876 534.981 421.676 529.345 426.842 526.528C432.007 523.828 441.281 518.897 447.386 515.727C453.491 512.44 463.822 507.04 470.278 503.635C476.735 500.231 486.244 495.3 491.41 492.483C496.575 489.783 507.024 484.382 514.655 480.391C522.168 476.399 534.377 470.06 541.538 466.186C548.817 462.429 559.265 456.911 564.783 454.094C570.301 451.159 580.632 445.758 587.676 442.002C594.719 438.245 606.107 432.258 612.916 428.736C619.725 425.214 629.469 420.048 634.634 417.466C639.8 414.765 650.835 408.896 659.288 404.435C667.74 400.091 678.306 394.456 682.767 392.108C687.228 389.642 697.794 384.125 706.247 379.781C714.699 375.437 725.265 369.92 729.726 367.454C734.187 364.989 744.518 359.589 752.618 355.48C760.719 351.253 771.754 345.384 777.272 342.566C782.79 339.631 793.355 334.113 800.751 330.122C808.147 326.248 819.535 320.378 825.992 316.973C832.449 313.569 842.427 308.286 848.297 305.234C854.167 302.181 864.733 296.664 871.777 292.907C878.82 289.15 889.738 283.515 895.843 280.228C901.948 277.058 911.692 271.893 917.561 268.84C923.431 265.788 932.823 260.74 938.693 257.688C944.563 254.635 955.363 249 962.759 245.126C970.155 241.252 981.308 235.382 987.413 232.095C993.517 228.808 1003.03 223.877 1008.54 221.06C1014.06 218.242 1022.75 213.664 1027.91 210.963C1033.08 208.146 1044.94 201.924 1054.33 196.993C1063.72 192.18 1075.81 185.723 1081.33 182.905C1086.85 179.97 1096.36 174.922 1102.46 171.753C1108.57 168.465 1119.13 162.948 1125.94 159.426C1132.75 155.787 1143.55 150.151 1150.01 146.747C1156.46 143.342 1167.85 137.473 1175.25 133.598C1182.64 129.724 1193.8 123.854 1199.9 120.567C1206.01 117.398 1215.28 112.467 1220.45 109.767C1225.61 107.067 1236.18 101.549 1243.93 97.44C1251.67 93.4484 1262.71 87.5786 1268.58 84.5262C1274.45 81.4739 1285.25 75.8388 1292.65 71.8473C1300.04 67.9732 1310.84 62.3381 1316.71 59.2858C1322.58 56.2334 1332.8 50.8331 1339.6 47.1938C1346.41 43.6719 1355.69 38.7412 1360.15 36.3932C1364.61 33.9279 1374.24 28.9972 1381.28 25.2405C1388.32 21.4837 1400.77 15.0269 1408.87 10.8006C1416.97 6.69166 1424.6 2.46535 1425.89 1.64357C1427.18 0.704385 1429.06 0 1430 0V0ZM1411.8 90.9831C1403.35 95.3268 1391.49 101.549 1385.39 104.836C1379.28 108.006 1370.48 112.702 1366.02 115.05C1361.56 117.398 1350.99 123.033 1342.54 127.376C1334.09 131.72 1317.53 140.525 1305.56 146.747C1293.58 153.086 1276.44 162.009 1267.4 166.704C1258.37 171.4 1247.21 177.153 1242.75 179.618C1238.29 182.084 1228.66 187.014 1221.62 190.771C1214.58 194.528 1204.71 199.693 1199.9 202.276C1195.09 204.741 1184.99 210.024 1177.6 213.898C1170.2 217.772 1159.4 223.525 1153.53 226.577C1147.66 229.63 1136.62 235.499 1128.88 239.491C1121.13 243.6 1104.81 252.17 1092.48 258.627C1080.16 265.084 1065.95 272.597 1060.79 275.297C1055.62 277.997 1044 284.102 1034.96 288.798C1025.92 293.494 1013.83 299.833 1007.96 302.886C1002.09 305.938 993.987 310.282 989.761 312.512C985.534 314.743 976.025 319.791 968.629 323.665C961.233 327.539 949.611 333.644 942.802 337.166C935.993 340.805 924.136 346.91 916.387 351.019C908.639 355.01 898.543 360.293 894.082 362.758C889.621 365.106 879.525 370.507 871.777 374.498C864.028 378.607 853.932 383.89 849.471 386.238C845.01 388.586 835.383 393.634 828.34 397.391C821.296 401.147 810.143 406.9 803.686 410.304C797.229 413.709 781.968 421.692 769.641 428.149C757.314 434.606 740.996 443.293 733.248 447.285C725.5 451.276 713.29 457.616 706.247 461.372C699.203 465.129 688.637 470.647 682.767 473.699C676.897 476.751 666.684 482.152 659.875 485.791C653.066 489.313 643.322 494.478 638.156 497.179C632.991 499.879 622.895 505.162 615.851 508.918C608.807 512.675 597.654 518.428 591.197 521.832C584.741 525.237 569.127 533.337 556.565 540.029C544.004 546.603 529.447 554.351 524.281 557.051C519.116 559.751 507.728 565.739 499.041 570.2C490.353 574.778 479.201 580.531 474.387 583.114C469.574 585.696 458.774 591.331 450.321 595.792C441.868 600.136 431.303 605.771 426.842 608.119C422.38 610.585 413.106 615.398 406.297 618.92C399.488 622.559 387.631 628.664 379.883 632.773C372.134 636.764 360.747 642.751 354.642 646.039C348.538 649.208 338.794 654.374 332.924 657.426C327.054 660.479 318.367 665.057 313.553 667.64C308.74 670.223 297.939 675.975 289.487 680.319C281.034 684.662 264.246 693.585 251.92 700.041C239.593 706.381 224.097 714.599 217.288 718.238C210.479 721.76 200.265 727.16 194.395 730.213C188.525 733.265 178.312 738.665 171.503 742.187C164.694 745.827 153.306 751.696 146.262 755.453C139.219 759.21 129.24 764.375 124.309 767.076C119.378 769.776 115.387 772.006 115.504 772.006C115.622 772.124 119.731 774.237 124.544 776.82C129.357 779.402 138.866 784.45 145.675 787.972C152.484 791.612 161.407 796.307 165.633 798.538C169.859 800.769 181.129 806.756 190.873 811.804C200.5 816.852 213.179 823.426 219.049 826.479C224.918 829.531 239.593 837.397 251.92 843.736C264.246 850.193 281.034 859.115 289.487 863.459C297.939 867.803 308.74 873.555 313.553 876.138C318.367 878.721 327.876 883.769 334.685 887.291C341.494 890.812 350.768 895.626 355.229 898.091C359.69 900.439 370.256 906.074 378.709 910.418C387.161 914.762 398.197 920.631 403.362 923.332C408.528 926.032 419.093 931.549 426.842 935.658C434.59 939.65 445.155 945.285 450.321 947.985C455.486 950.685 464.996 955.733 471.452 959.138C477.909 962.66 488.475 968.177 494.932 971.465C501.389 974.752 512.776 980.739 520.172 984.613C527.568 988.487 538.956 994.475 545.413 997.879C551.869 1001.28 560.909 1005.98 565.37 1008.44C569.831 1010.91 580.984 1016.66 590.024 1021.36C599.063 1026.05 610.685 1032.16 615.851 1034.86C621.016 1037.56 631.112 1042.84 638.156 1046.6C645.2 1050.36 655.766 1055.87 661.636 1058.93C667.506 1061.98 676.897 1067.03 682.767 1070.08C688.637 1073.13 698.851 1078.53 705.66 1082.17C712.469 1085.69 722.682 1091.09 728.552 1094.15C734.422 1097.2 746.983 1103.77 756.727 1108.82C766.354 1113.87 776.92 1119.39 780.207 1121.15C783.377 1122.91 790.773 1126.9 796.642 1129.95C802.512 1133.12 812.726 1138.4 819.535 1141.93C826.344 1145.45 836.557 1150.73 842.427 1153.78C848.297 1156.84 860.389 1163.17 869.429 1167.99C878.468 1172.8 889.621 1178.55 894.082 1181.02C898.543 1183.48 908.639 1188.77 916.387 1192.76C924.136 1196.87 935.993 1202.97 942.802 1206.61C949.611 1210.13 960.411 1215.77 966.868 1219.17C973.325 1222.58 983.304 1227.86 989.174 1230.91C995.044 1234.08 1003.97 1238.78 1009.13 1241.48C1014.3 1244.18 1024.39 1249.46 1031.44 1253.22C1038.48 1256.98 1050.45 1263.08 1057.85 1266.95C1065.25 1270.83 1081.1 1279.16 1093.07 1285.5C1105.04 1291.73 1121.6 1300.53 1130.05 1304.87C1138.5 1309.22 1149.07 1314.85 1153.53 1317.2C1157.99 1319.55 1168.09 1324.83 1175.84 1328.94C1183.58 1333.05 1194.15 1338.57 1199.31 1341.27C1204.48 1343.97 1213.75 1348.9 1219.86 1352.07C1225.96 1355.35 1236.88 1360.99 1243.93 1364.75C1250.97 1368.5 1262.94 1374.73 1270.34 1378.6C1277.74 1382.36 1293.35 1390.57 1304.97 1396.68C1316.59 1402.9 1330.8 1410.41 1336.67 1413.47C1342.54 1416.52 1353.81 1422.51 1361.91 1426.61C1370.01 1430.84 1381.05 1436.59 1386.56 1439.53C1392.08 1442.46 1403.35 1448.45 1411.8 1452.79C1420.26 1457.14 1427.77 1461.13 1428.47 1461.72C1429.41 1462.3 1430.59 1462.3 1431.41 1461.72C1432.23 1461.13 1439.74 1457.14 1448.2 1452.79C1456.65 1448.45 1467.92 1442.46 1473.44 1439.53C1478.95 1436.59 1489.99 1430.84 1498.09 1426.61C1506.19 1422.51 1517.58 1416.52 1523.33 1413.47C1529.08 1410.41 1543.41 1402.9 1555.03 1396.68C1566.65 1390.57 1582.26 1382.36 1589.66 1378.6C1597.06 1374.73 1608.91 1368.5 1616.07 1364.75C1623.24 1360.99 1634.04 1355.35 1640.14 1352.07C1646.25 1348.9 1655.52 1343.97 1660.69 1341.27C1665.85 1338.57 1676.42 1333.05 1684.16 1328.94C1691.91 1324.83 1702.01 1319.55 1706.47 1317.2C1710.93 1314.85 1721.5 1309.22 1729.95 1304.87C1738.4 1300.53 1754.96 1291.73 1766.93 1285.5C1778.9 1279.16 1794.75 1270.83 1802.15 1266.95C1809.54 1263.08 1821.4 1256.98 1828.56 1253.22C1835.72 1249.46 1845.7 1244.18 1850.87 1241.48C1856.03 1238.78 1865.07 1234.08 1870.83 1230.91C1876.58 1227.86 1886.67 1222.58 1893.13 1219.17C1899.59 1215.77 1910.39 1210.13 1917.2 1206.61C1924.01 1202.97 1935.86 1196.87 1943.61 1192.76C1951.36 1188.77 1961.46 1183.48 1965.92 1181.02C1970.38 1178.55 1981.53 1172.8 1990.57 1167.99C1999.61 1163.17 2011.82 1156.84 2017.57 1153.78C2023.32 1150.73 2033.66 1145.45 2040.46 1141.93C2047.27 1138.4 2057.6 1133.12 2063.36 1129.95C2069.11 1126.9 2076.51 1122.91 2079.79 1121.15C2082.96 1119.39 2093.53 1113.87 2103.27 1108.82C2112.9 1103.77 2125.7 1097.2 2131.45 1094.15C2137.2 1091.09 2147.53 1085.69 2154.34 1082.17C2161.15 1078.53 2171.48 1073.13 2177.23 1070.08C2182.99 1067.03 2192.61 1061.98 2198.36 1058.93C2204.12 1055.87 2214.68 1050.36 2221.84 1046.6C2229 1042.84 2238.98 1037.56 2244.15 1034.86C2249.31 1032.16 2260.94 1026.05 2269.98 1021.36C2279.02 1016.66 2290.17 1010.91 2294.63 1008.44C2299.09 1005.98 2308.13 1001.28 2314.59 997.879C2321.04 994.475 2332.43 988.487 2339.83 984.613C2347.22 980.739 2358.61 974.752 2365.07 971.465C2371.52 968.177 2382.09 962.66 2388.55 959.138C2395 955.733 2404.51 950.685 2409.68 947.985C2414.84 945.285 2425.41 939.65 2433.16 935.658C2440.91 931.549 2451.47 926.032 2456.64 923.332C2461.8 920.631 2472.84 914.762 2481.29 910.418C2489.74 906.074 2500.31 900.439 2504.77 898.091C2509.23 895.626 2518.51 890.812 2525.31 887.291C2532.12 883.769 2541.63 878.721 2546.45 876.138C2551.26 873.555 2562.06 867.803 2570.51 863.459C2578.97 859.115 2595.87 850.193 2608.08 843.736C2620.29 837.397 2635.2 829.531 2640.95 826.479C2646.7 823.426 2659.38 816.852 2669.13 811.804C2678.75 806.756 2690.14 800.769 2694.37 798.538C2698.59 796.307 2707.52 791.612 2714.32 787.972C2721.13 784.45 2730.76 779.402 2735.69 776.702C2740.62 774.002 2744.61 771.771 2744.5 771.771C2744.38 771.654 2740.27 769.541 2735.46 766.958C2730.64 764.375 2720.9 759.21 2713.74 755.453C2706.58 751.696 2695.31 745.827 2688.5 742.187C2681.69 738.665 2671.36 733.265 2665.6 730.213C2659.85 727.16 2649.52 721.76 2642.71 718.238C2635.9 714.599 2620.29 706.381 2608.08 700.041C2595.87 693.585 2578.97 684.662 2570.51 680.319C2562.06 675.975 2551.26 670.223 2546.45 667.64C2541.63 665.057 2532.83 660.479 2527.08 657.426C2521.32 654.374 2511.46 649.208 2505.36 646.039C2499.25 642.751 2487.87 636.764 2480.12 632.773C2472.37 628.664 2460.51 622.559 2453.7 618.92C2446.89 615.398 2437.62 610.585 2433.16 608.119C2428.7 605.771 2418.13 600.136 2409.68 595.792C2401.23 591.331 2390.43 585.696 2385.61 583.114C2380.8 580.531 2369.65 574.778 2360.96 570.2C2352.27 565.739 2340.88 559.751 2335.72 557.051C2330.55 554.351 2316 546.603 2303.43 540.029C2290.87 533.337 2275.26 525.237 2268.8 521.832C2262.35 518.428 2251.31 512.675 2244.15 508.918C2236.99 505.162 2227.01 499.879 2221.84 497.179C2216.68 494.478 2206.93 489.313 2200.13 485.791C2193.32 482.152 2182.99 476.751 2177.23 473.699C2171.48 470.647 2160.91 465.129 2153.75 461.372C2146.59 457.616 2134.5 451.276 2126.75 447.285C2119 443.293 2102.57 434.606 2090.36 428.149C2078.15 421.692 2062.77 413.709 2056.31 410.304C2049.86 406.9 2038.82 401.147 2031.66 397.391C2024.5 393.634 2014.99 388.586 2010.53 386.238C2006.07 383.89 1995.97 378.607 1988.22 374.498C1980.48 370.507 1970.38 365.106 1965.92 362.758C1961.46 360.293 1951.36 355.01 1943.61 351.019C1935.86 346.91 1924.01 340.805 1917.2 337.166C1910.39 333.644 1898.77 327.539 1891.37 323.665C1883.97 319.791 1874.47 314.743 1870.24 312.512C1866.01 310.282 1857.8 305.938 1852.04 302.886C1846.29 299.833 1834.08 293.494 1825.04 288.798C1816 284.102 1804.38 277.997 1799.21 275.297C1794.05 272.597 1779.73 265.084 1767.52 258.627C1755.31 252.17 1738.87 243.6 1731.12 239.491C1723.38 235.499 1712.22 229.63 1706.47 226.577C1700.72 223.525 1689.8 217.772 1682.4 213.898C1675.01 210.024 1664.91 204.741 1660.1 202.276C1655.28 199.693 1645.54 194.528 1638.38 190.771C1631.22 187.014 1621.71 182.084 1617.25 179.618C1612.79 177.153 1601.63 171.4 1592.59 166.704C1583.56 162.009 1566.42 153.086 1554.44 146.747C1542.47 140.525 1525.91 131.72 1517.46 127.376C1509.01 123.033 1498.44 117.398 1493.98 115.05C1489.52 112.702 1480.72 108.006 1474.61 104.836C1468.51 101.549 1456.65 95.3268 1448.2 90.9831C1439.74 86.6394 1432.47 82.5305 1431.76 81.9435C1431.06 81.4739 1430.35 81.0043 1430 81.0043C1429.53 81.0043 1428.83 81.4739 1428.24 82.0609C1427.53 82.5305 1420.26 86.6394 1411.8 90.9831V90.9831ZM1229.25 1463.01C1219.86 1467.94 1207.53 1474.4 1201.66 1477.45C1195.79 1480.5 1186.4 1485.55 1180.53 1488.6C1174.66 1491.65 1164.68 1496.94 1158.23 1500.34C1151.77 1503.75 1141.79 1509.03 1135.92 1512.08C1130.05 1515.13 1119.48 1520.65 1112.44 1524.41C1105.4 1528.16 1094.83 1533.68 1088.96 1536.73C1083.09 1539.79 1072.06 1545.66 1064.31 1549.65C1056.56 1553.64 1045.52 1559.51 1039.65 1562.56C1033.78 1565.61 1022.75 1571.48 1015 1575.47C1007.25 1579.58 995.865 1585.45 989.761 1588.74C983.656 1591.91 974.382 1596.72 969.216 1599.54C964.051 1602.24 953.955 1607.52 946.911 1611.28C939.867 1615.04 929.771 1620.32 924.605 1623.02C919.44 1625.72 909.109 1631.12 901.713 1635C894.317 1638.87 883.751 1644.5 878.233 1647.32C872.716 1650.26 862.385 1655.66 855.341 1659.41C848.297 1663.17 836.323 1669.28 828.927 1673.15C821.531 1677.02 812.256 1681.95 808.382 1684.07C804.508 1686.18 793.355 1691.93 783.729 1696.98C773.985 1702.03 762.362 1708.02 757.901 1710.48C753.44 1712.95 743.344 1718.23 735.596 1722.22C727.848 1726.33 717.752 1731.61 713.29 1733.96C708.829 1736.43 698.264 1741.94 689.811 1746.29C681.358 1750.63 670.793 1756.15 666.332 1758.62C661.871 1760.96 651.774 1766.25 644.026 1770.35C636.278 1774.35 625.712 1779.98 620.547 1782.68C615.381 1785.38 604.346 1791.25 595.893 1795.6C587.441 1799.94 576.875 1805.46 572.414 1807.92C567.953 1810.27 558.326 1815.32 551.282 1819.07C544.239 1822.83 532.851 1828.7 526.042 1832.22C519.233 1835.86 508.433 1841.5 501.976 1844.9C495.519 1848.31 483.897 1854.41 476.148 1858.4C468.4 1862.51 458.304 1867.68 453.843 1870.14C449.382 1872.49 439.286 1877.77 431.537 1881.88C423.789 1885.87 413.223 1891.51 408.058 1894.21C402.893 1896.91 392.562 1902.31 385.166 1906.18C377.77 1910.06 367.204 1915.69 361.686 1918.51C356.168 1921.45 346.19 1926.73 339.381 1930.25C332.572 1933.89 322.358 1939.29 316.488 1942.34C310.618 1945.39 299.818 1951.03 292.422 1954.9C285.026 1958.9 273.873 1964.65 267.768 1967.93C261.664 1971.1 251.92 1976.27 246.05 1979.32C240.18 1982.37 229.145 1988.13 221.397 1992.24C213.648 1996.35 202.613 2002.1 196.743 2005.15C190.873 2008.2 180.66 2013.6 173.851 2017.12C167.042 2020.65 156.006 2026.52 149.197 2030.04C142.388 2033.68 132.644 2038.84 127.479 2041.43C122.313 2044.13 117.735 2046.71 117.265 2047.18C116.796 2047.65 120.2 2050 124.896 2052.34C129.475 2054.81 136.753 2058.57 140.98 2060.8C145.206 2063.03 163.402 2072.65 181.482 2082.16C199.561 2091.55 219.049 2101.89 224.918 2104.94C230.788 2107.99 242.058 2113.98 250.159 2118.09C258.259 2122.31 269.295 2128.07 274.812 2131C280.33 2133.93 290.661 2139.34 297.705 2143.09C304.749 2146.85 314.845 2152.13 320.01 2154.83C325.176 2157.53 334.92 2162.7 341.729 2166.22C348.538 2169.86 359.925 2175.73 366.969 2179.49C374.013 2183.24 385.4 2189.11 392.209 2192.75C399.018 2196.27 409.232 2201.67 415.102 2204.73C420.972 2207.78 430.716 2212.94 436.82 2216.11C442.925 2219.4 453.256 2224.8 459.713 2228.21C466.17 2231.49 476.735 2237.13 483.192 2240.53C489.649 2243.94 504.911 2251.92 517.237 2258.38C529.564 2264.83 546.939 2273.99 555.978 2278.69C565.018 2283.38 581.101 2291.83 591.784 2297.47C602.468 2303.1 616.438 2310.5 622.895 2313.91C629.352 2317.31 640.504 2323.06 647.548 2326.82C654.592 2330.46 664.923 2335.86 670.441 2338.79C675.958 2341.73 693.333 2350.89 709.182 2359.1C725.03 2367.32 739.47 2375.07 741.466 2376.13C743.462 2377.3 751.445 2381.64 759.428 2385.75C767.411 2389.74 777.976 2395.26 782.907 2397.84C787.838 2400.43 799.93 2406.65 809.556 2411.81C819.3 2416.86 830.922 2423.09 835.383 2425.43C839.845 2427.78 848.649 2432.48 854.754 2435.65C860.859 2438.93 873.303 2445.39 882.342 2450.09C891.382 2454.78 903.004 2460.89 908.17 2463.59C913.335 2466.29 923.431 2471.57 930.475 2475.33C937.519 2479.08 947.38 2484.25 952.194 2486.83C957.007 2489.41 966.516 2494.46 973.325 2497.87C980.134 2501.39 990.113 2506.67 995.631 2509.49C1001.15 2512.42 1012.18 2518.29 1020.28 2522.52C1028.38 2526.75 1044.7 2535.43 1056.68 2541.66C1068.65 2548 1085.79 2556.92 1094.83 2561.61C1103.87 2566.31 1115.02 2572.06 1119.48 2574.53C1123.95 2576.99 1133.22 2581.81 1140.03 2585.45C1146.84 2588.97 1156.82 2594.25 1162.33 2597.19C1167.85 2600 1177.95 2605.4 1184.99 2609.04C1191.92 2612.68 1203.19 2618.55 1210.12 2622.19C1217.16 2625.83 1228.08 2631.58 1234.53 2634.99C1240.99 2638.39 1256.02 2646.38 1267.99 2652.71C1279.97 2658.94 1294.17 2666.45 1299.69 2669.27C1305.21 2672.2 1314.36 2677.02 1320.23 2680.07C1326.1 2683.12 1338.43 2689.58 1347.82 2694.51C1357.21 2699.44 1368.84 2705.54 1373.65 2708.01C1378.46 2710.59 1387.97 2715.64 1394.78 2719.16C1401.59 2722.8 1412.27 2728.32 1418.61 2731.72L1430 2737.71C1447.73 2728.32 1458.41 2722.8 1465.22 2719.16C1472.03 2715.64 1481.54 2710.59 1486.35 2708.01C1491.16 2705.54 1502.79 2699.44 1512.18 2694.51C1521.57 2689.58 1534.01 2683.12 1539.77 2680.07C1545.52 2677.02 1554.79 2672.2 1560.31 2669.27C1565.83 2666.45 1580.03 2658.94 1592.01 2652.71C1603.98 2646.38 1619.01 2638.39 1625.47 2634.99C1631.92 2631.58 1642.72 2625.95 1649.53 2622.31C1656.34 2618.79 1667.61 2612.92 1674.77 2609.16C1681.93 2605.4 1692.15 2600 1697.67 2597.19C1703.18 2594.25 1713.16 2588.97 1719.97 2585.45C1726.78 2581.81 1736.05 2576.99 1740.52 2574.53C1744.98 2572.06 1756.13 2566.31 1765.17 2561.61C1774.21 2556.92 1791.35 2548 1803.32 2541.66C1815.3 2535.43 1831.62 2526.75 1839.72 2522.52C1847.82 2518.29 1858.85 2512.42 1864.37 2509.49C1869.89 2506.67 1879.87 2501.39 1886.67 2497.87C1893.48 2494.46 1902.99 2489.41 1907.81 2486.83C1912.62 2484.25 1922.36 2479.08 1929.52 2475.33C1936.69 2471.57 1946.66 2466.29 1951.83 2463.59C1957 2460.89 1968.62 2454.78 1977.66 2450.09C1986.7 2445.39 1999.14 2438.93 2005.25 2435.65C2011.35 2432.48 2020.16 2427.78 2024.62 2425.43C2029.08 2423.09 2040.7 2416.86 2050.44 2411.81C2060.07 2406.65 2072.16 2400.43 2077.09 2397.84C2082.02 2395.26 2092.59 2389.74 2100.57 2385.75C2108.56 2381.64 2116.54 2377.3 2118.53 2376.13C2120.53 2375.07 2134.97 2367.32 2150.82 2359.1C2166.67 2350.89 2184.04 2341.73 2189.56 2338.79C2195.08 2335.86 2205.29 2330.46 2212.45 2326.82C2219.61 2323.06 2230.65 2317.31 2237.11 2313.91C2243.56 2310.5 2257.53 2303.1 2268.22 2297.47C2278.9 2291.83 2294.98 2283.38 2304.02 2278.69C2313.06 2273.99 2330.55 2264.83 2342.76 2258.38C2354.97 2251.92 2370.35 2243.94 2376.81 2240.53C2383.26 2237.13 2393.83 2231.49 2400.29 2228.21C2406.74 2224.8 2417.07 2219.4 2423.18 2216.11C2429.28 2212.94 2439.15 2207.78 2444.9 2204.73C2450.65 2201.67 2460.98 2196.27 2467.79 2192.75C2474.6 2189.11 2485.87 2183.24 2493.03 2179.49C2500.19 2175.73 2511.46 2169.86 2518.27 2166.22C2525.08 2162.7 2534.82 2157.53 2539.99 2154.83C2545.16 2152.13 2555.13 2146.85 2562.29 2143.09C2569.46 2139.34 2579.67 2133.93 2585.19 2131C2590.71 2128.07 2601.74 2122.31 2609.84 2118.09C2617.94 2113.98 2629.33 2107.99 2635.08 2104.94C2640.83 2101.89 2660.44 2091.55 2678.52 2082.16C2696.6 2072.65 2714.79 2063.03 2719.02 2060.8C2723.25 2058.57 2730.53 2054.81 2735.1 2052.34C2739.8 2050 2743.2 2047.65 2742.73 2047.18C2742.26 2046.71 2737.69 2044.13 2732.52 2041.43C2727.36 2038.84 2717.61 2033.68 2710.8 2030.04C2703.99 2026.52 2692.96 2020.65 2686.15 2017.12C2679.34 2013.6 2669.01 2008.2 2663.26 2005.15C2657.5 2002.1 2646.35 1996.35 2638.6 1992.24C2630.85 1988.13 2619.7 1982.37 2613.95 1979.32C2608.2 1976.27 2598.34 1971.1 2592.23 1967.93C2586.13 1964.65 2574.97 1958.9 2567.58 1954.9C2560.18 1951.03 2549.26 1945.39 2543.51 1942.34C2537.76 1939.29 2527.43 1933.89 2520.62 1930.25C2513.81 1926.73 2503.83 1921.45 2498.31 1918.51C2492.8 1915.69 2482.23 1910.06 2474.83 1906.18C2467.44 1902.31 2457.11 1896.91 2451.94 1894.21C2446.78 1891.51 2436.21 1885.87 2428.46 1881.88C2420.71 1877.77 2410.62 1872.49 2406.16 1870.14C2401.7 1867.68 2391.6 1862.51 2383.85 1858.4C2376.1 1854.41 2364.48 1848.31 2358.02 1844.9C2351.57 1841.5 2340.77 1835.86 2333.96 1832.22C2327.15 1828.7 2315.88 1822.83 2308.72 1819.07C2301.56 1815.32 2292.05 1810.27 2287.59 1807.92C2283.12 1805.46 2272.56 1799.94 2264.11 1795.6C2255.65 1791.25 2244.62 1785.38 2239.45 1782.68C2234.29 1779.98 2223.72 1774.35 2215.97 1770.35C2208.23 1766.25 2198.13 1760.96 2193.67 1758.62C2189.21 1756.15 2178.64 1750.63 2170.19 1746.29C2161.74 1741.94 2151.17 1736.43 2146.71 1733.96C2142.25 1731.61 2132.15 1726.33 2124.4 1722.22C2116.66 1718.23 2106.56 1712.95 2102.1 1710.48C2097.64 1708.02 2085.9 1702.03 2076.27 1696.98C2066.53 1691.93 2055.49 1686.18 2051.62 1684.07C2047.74 1681.95 2038.47 1677.02 2031.07 1673.15C2023.68 1669.28 2011.82 1663.17 2004.66 1659.41C1997.5 1655.66 1987.28 1650.26 1981.77 1647.32C1976.25 1644.5 1965.68 1638.87 1958.29 1635C1950.89 1631.12 1940.56 1625.72 1935.39 1623.02C1930.23 1620.32 1920.25 1615.04 1913.09 1611.28C1905.93 1607.52 1895.95 1602.24 1890.78 1599.54C1885.62 1596.72 1876.34 1591.91 1870.24 1588.74C1864.13 1585.45 1852.75 1579.58 1845 1575.47C1837.25 1571.48 1826.1 1565.61 1820.35 1562.56C1814.59 1559.51 1803.44 1553.64 1795.69 1549.65C1787.94 1545.66 1776.79 1539.79 1771.04 1536.73C1765.29 1533.68 1754.72 1528.16 1747.56 1524.41C1740.4 1520.65 1729.83 1515.13 1724.08 1512.08C1718.33 1509.03 1708.23 1503.75 1701.77 1500.34C1695.32 1496.94 1685.22 1491.65 1679.47 1488.6C1673.72 1485.55 1664.09 1480.5 1658.34 1477.45C1652.58 1474.4 1641.67 1468.76 1634.27 1464.89C1626.87 1461.01 1618.19 1456.43 1615.14 1454.67C1609.73 1451.86 1609.27 1451.74 1606.33 1453.5C1604.57 1454.44 1595.76 1459.13 1586.73 1463.95C1577.69 1468.64 1565.24 1475.1 1559.14 1478.39C1553.03 1481.56 1544.23 1486.25 1539.77 1488.6C1535.31 1490.95 1523.57 1497.05 1513.94 1502.1C1504.19 1507.15 1494.22 1512.43 1491.63 1513.84C1489.05 1515.25 1480.13 1520.06 1471.68 1524.41C1463.22 1528.87 1450.43 1535.44 1443.15 1539.32L1430 1546.13C1409.57 1535.44 1396.78 1528.87 1388.32 1524.41C1379.87 1520.06 1370.95 1515.25 1368.37 1513.84C1365.78 1512.43 1355.69 1507.15 1346.06 1502.1C1336.32 1497.05 1324.69 1490.95 1320.23 1488.6C1315.77 1486.25 1306.97 1481.56 1300.86 1478.39C1294.76 1475.1 1282.31 1468.64 1273.27 1463.95C1264.24 1459.25 1255.78 1454.67 1254.49 1453.73C1253.2 1452.91 1251.32 1452.21 1250.38 1452.21C1249.33 1452.21 1248.03 1452.68 1247.45 1453.26C1246.74 1453.85 1238.64 1458.19 1229.25 1463.01V1463.01ZM1218.1 2744.17C1209.65 2748.51 1198.61 2754.38 1193.44 2757.08C1188.28 2759.78 1177.71 2765.42 1169.97 2769.41C1162.22 2773.52 1152.12 2778.8 1147.66 2781.15C1143.2 2783.61 1133.1 2788.9 1125.35 2792.89C1117.61 2797 1107.04 2802.51 1101.87 2805.21C1096.71 2807.91 1085.09 2814.02 1076.05 2818.83C1067.01 2823.53 1055.15 2829.75 1049.63 2832.57C1044.12 2835.39 1034.14 2840.67 1027.33 2844.19C1020.52 2847.83 1011.83 2852.41 1007.96 2854.52C1004.08 2856.63 994.104 2861.92 985.652 2866.26C977.199 2870.6 964.872 2877.18 958.063 2880.7C951.254 2884.22 940.454 2889.86 933.997 2893.26C927.54 2896.67 917.561 2901.95 911.692 2905C905.822 2908.05 895.726 2913.45 889.034 2916.86C882.46 2920.38 871.424 2926.13 864.498 2929.77C857.454 2933.41 847.593 2938.7 842.427 2941.4C837.262 2944.1 826.696 2949.73 818.948 2953.72C811.2 2957.71 800.634 2963.35 795.468 2966.05C790.303 2968.75 780.794 2973.8 774.337 2977.2C767.88 2980.61 756.493 2986.59 749.097 2990.47C741.701 2994.22 730.9 2999.98 725.03 3003.03C719.16 3006.08 708.125 3011.95 700.377 3015.94C692.629 3019.93 682.532 3025.33 678.071 3027.68C673.61 3030.15 663.044 3035.67 654.592 3040.01C646.139 3044.35 635.574 3049.87 631.112 3052.34C626.651 3054.8 616.555 3060.08 608.807 3064.08C601.059 3068.07 590.963 3073.35 586.502 3075.82C582.041 3078.28 571.475 3083.8 563.022 3088.14C554.57 3092.49 542.243 3099.06 535.434 3102.58C528.625 3106.1 519.937 3110.68 516.063 3112.8C512.189 3114.91 502.21 3120.19 493.758 3124.54C485.305 3128.88 473.8 3134.98 467.931 3138.04C462.061 3141.09 451.26 3146.84 443.864 3150.72C436.468 3154.59 425.902 3160.11 420.385 3162.92C414.867 3165.86 404.888 3171.14 398.079 3174.66C391.27 3178.3 381.057 3183.7 375.187 3186.76C369.317 3189.81 358.516 3195.44 351.12 3199.44C343.724 3203.31 332.102 3209.3 325.293 3212.94C318.484 3216.46 309.21 3221.39 304.749 3223.74C300.287 3226.2 289.722 3231.72 281.269 3236.06C272.816 3240.41 262.251 3246.04 257.79 3248.39C253.329 3250.86 242.763 3256.37 234.31 3260.83C225.975 3265.18 214.588 3271.16 209.07 3273.98C203.552 3276.8 193.221 3282.2 186.177 3285.96C179.134 3289.71 169.037 3295 163.872 3297.7C158.706 3300.4 146.262 3306.85 136.284 3312.14C126.305 3317.3 117.383 3322.12 116.561 3322.82C115.387 3323.88 116.913 3325.17 123.605 3328.69C128.301 3331.15 135.814 3335.15 140.393 3337.61C144.971 3339.96 154.48 3345.01 161.524 3348.76C168.568 3352.52 179.134 3358.04 185.003 3361.09C190.873 3364.14 200.617 3369.31 206.722 3372.48C212.827 3375.77 223.979 3381.52 231.375 3385.39C238.771 3389.27 250.746 3395.61 257.79 3399.25C264.833 3403 275.751 3408.64 281.856 3411.92C287.961 3415.09 297.47 3420.14 302.988 3423.08C308.505 3425.89 320.128 3432 328.815 3436.58C337.502 3441.04 347.833 3446.44 351.707 3448.55C355.581 3450.55 366.147 3456.18 375.187 3460.88C384.226 3465.58 393.736 3470.62 396.318 3472.03C398.901 3473.44 408.88 3478.72 418.624 3483.77C428.25 3488.82 439.99 3494.92 444.451 3497.27C448.912 3499.74 458.774 3504.9 466.17 3508.66C473.566 3512.53 484.131 3518.17 489.649 3520.99C495.167 3523.92 507.024 3530.14 516.063 3534.84C525.103 3539.54 535.903 3545.29 540.13 3547.52C544.356 3549.75 554.335 3555.03 562.435 3559.26C570.536 3563.37 581.336 3569.12 586.502 3571.82C591.667 3574.52 600.589 3579.33 606.459 3582.39C612.329 3585.44 623.599 3591.43 631.699 3595.65C639.8 3599.76 650.131 3605.16 654.592 3607.63C659.053 3610.09 669.619 3615.61 678.071 3619.95C686.524 3624.3 695.916 3629.34 699.203 3631.11C702.373 3632.87 712.938 3638.38 722.682 3643.43C732.309 3648.48 744.049 3654.59 748.51 3656.93C752.971 3659.4 762.245 3664.21 769.054 3667.73C775.863 3671.37 787.72 3677.6 795.468 3681.59C803.217 3685.7 814.017 3691.33 819.535 3694.27C825.053 3697.08 836.088 3702.95 844.188 3707.18C852.289 3711.29 862.62 3716.69 867.081 3719.15C871.542 3721.5 881.168 3726.55 888.212 3730.31C895.256 3734.06 905.352 3739.35 910.518 3742.05C915.683 3744.75 926.718 3750.62 935.171 3754.96C943.624 3759.3 954.189 3764.82 958.65 3767.29C963.112 3769.63 973.208 3775.04 980.956 3779.03C988.704 3783.14 1000.09 3789.01 1006.2 3792.29C1012.3 3795.46 1022.04 3800.63 1027.91 3803.68C1033.78 3806.73 1043.53 3811.9 1049.63 3815.07C1055.74 3818.35 1067.59 3824.58 1076.05 3828.92C1084.5 3833.26 1096.01 3839.37 1101.87 3842.42C1107.74 3845.47 1116.9 3850.4 1122.42 3853.22C1127.94 3856.16 1138.27 3861.56 1145.31 3865.31C1152.36 3869.07 1164.33 3875.29 1171.73 3879.17C1179.12 3883.04 1188.98 3888.21 1193.44 3890.55C1197.91 3893.02 1207.53 3897.95 1214.58 3901.71C1221.62 3905.46 1232.77 3911.22 1239.23 3914.62C1245.69 3918.03 1256.84 3923.9 1263.88 3927.53C1270.93 3931.29 1280.55 3936.34 1285.01 3938.69C1289.48 3941.15 1300.04 3946.67 1308.49 3951.01C1316.95 3955.36 1328.8 3961.58 1334.91 3964.87C1341.01 3968.04 1350.29 3972.97 1355.45 3975.67C1360.62 3978.37 1370.71 3983.65 1377.76 3987.41C1384.8 3991.16 1397.01 3997.5 1404.76 4001.49C1412.51 4005.6 1421.31 4010.3 1424.48 4011.94L1430 4015C1438.69 4010.3 1447.49 4005.6 1455.24 4001.49C1462.99 3997.5 1475.08 3991.16 1482.24 3987.41C1489.4 3983.65 1500.2 3978.02 1506.31 3974.73C1512.41 3971.56 1521.69 3966.63 1526.85 3963.93C1532.02 3961.23 1543.05 3955.36 1551.51 3951.01C1559.96 3946.67 1570.52 3941.15 1574.99 3938.69C1579.45 3936.34 1588.96 3931.29 1596.12 3927.53C1603.28 3923.9 1614.43 3917.91 1621 3914.5C1627.7 3910.98 1638.73 3905.23 1645.66 3901.59C1652.7 3897.95 1662.09 3893.02 1666.56 3890.55C1671.02 3888.21 1680.88 3883.04 1688.27 3879.17C1695.67 3875.29 1707.53 3869.07 1714.69 3865.31C1721.85 3861.56 1732.06 3856.16 1737.58 3853.22C1743.1 3850.4 1752.37 3845.47 1758.12 3842.42C1763.88 3839.37 1775.5 3833.26 1783.95 3828.92C1792.4 3824.58 1804.26 3818.35 1810.37 3815.07C1816.47 3811.9 1826.33 3806.73 1832.09 3803.68C1837.84 3800.63 1847.7 3795.46 1853.8 3792.29C1859.91 3789.01 1871.3 3783.14 1879.04 3779.03C1886.79 3775.04 1896.89 3769.63 1901.35 3767.29C1905.81 3764.82 1916.38 3759.3 1924.83 3754.96C1933.28 3750.62 1944.32 3744.75 1949.48 3742.05C1954.65 3739.35 1964.63 3734.06 1971.79 3730.31C1978.95 3726.55 1988.46 3721.5 1992.92 3719.15C1997.38 3716.69 2007.71 3711.29 2015.81 3707.18C2023.91 3702.95 2034.95 3697.08 2040.46 3694.27C2045.98 3691.33 2056.78 3685.7 2064.53 3681.59C2072.28 3677.6 2084.14 3671.37 2090.95 3667.73C2097.75 3664.21 2107.03 3659.4 2111.49 3656.93C2115.95 3654.59 2127.57 3648.48 2137.32 3643.43C2146.94 3638.38 2157.51 3632.87 2160.8 3631.11C2163.97 3629.34 2173.48 3624.3 2181.93 3619.95C2190.38 3615.61 2200.95 3610.09 2205.41 3607.63C2209.87 3605.16 2220.2 3599.76 2228.3 3595.65C2236.4 3591.43 2247.79 3585.44 2253.54 3582.39C2259.29 3579.33 2268.33 3574.52 2273.5 3571.82C2278.66 3569.12 2289.46 3563.37 2297.56 3559.26C2305.67 3555.03 2315.64 3549.75 2319.87 3547.52C2324.1 3545.29 2334.9 3539.54 2343.94 3534.84C2352.98 3530.14 2364.83 3523.92 2370.35 3520.99C2375.87 3518.17 2386.43 3512.53 2393.83 3508.66C2401.23 3504.9 2411.09 3499.74 2415.55 3497.27C2420.01 3494.92 2431.63 3488.82 2441.38 3483.77C2451 3478.72 2461.1 3473.44 2463.68 3472.03C2466.26 3470.62 2475.77 3465.58 2484.81 3460.88C2493.85 3456.18 2504.42 3450.55 2508.29 3448.55C2512.17 3446.44 2522.5 3441.04 2531.18 3436.58C2539.87 3432 2551.49 3425.89 2557.01 3423.08C2562.53 3420.14 2572.74 3414.74 2579.9 3410.99C2587.07 3407.23 2597.87 3401.59 2603.97 3398.31C2610.08 3395.14 2621.23 3389.27 2628.62 3385.39C2636.02 3381.52 2647.17 3375.77 2653.28 3372.48C2659.38 3369.31 2669.24 3364.14 2675 3361.09C2680.75 3358.04 2691.31 3352.52 2698.48 3348.76C2705.64 3345.01 2715.15 3339.96 2719.61 3337.61C2724.07 3335.15 2731.7 3331.15 2736.39 3328.69C2743.09 3325.17 2744.61 3323.88 2743.44 3322.82C2742.62 3322.12 2733.69 3317.3 2723.72 3312.14C2713.74 3306.85 2701.29 3300.4 2696.13 3297.7C2690.96 3295 2680.98 3289.71 2673.82 3285.96C2666.66 3282.2 2656.45 3276.8 2650.93 3273.98C2645.41 3271.16 2634.14 3265.18 2625.69 3260.83C2617.24 3256.37 2606.67 3250.86 2602.21 3248.39C2597.75 3246.04 2587.18 3240.41 2578.73 3236.06C2570.28 3231.72 2559.71 3226.2 2555.25 3223.74C2550.79 3221.39 2541.52 3216.46 2534.71 3212.94C2527.9 3209.3 2516.28 3203.31 2508.88 3199.44C2501.48 3195.44 2490.57 3189.81 2484.81 3186.76C2479.06 3183.7 2468.73 3178.3 2461.92 3174.66C2455.11 3171.14 2445.13 3165.86 2439.61 3162.92C2434.1 3160.11 2423.53 3154.59 2416.14 3150.72C2408.74 3146.84 2397.82 3141.09 2392.07 3138.04C2386.32 3134.98 2374.69 3128.88 2366.24 3124.54C2357.79 3120.19 2347.81 3114.91 2343.94 3112.8C2340.06 3110.68 2331.37 3106.1 2324.57 3102.58C2317.76 3099.06 2305.43 3092.49 2296.98 3088.14C2288.53 3083.8 2277.96 3078.28 2273.5 3075.82C2269.04 3073.35 2258.94 3068.07 2251.19 3064.08C2243.44 3060.08 2233.35 3054.8 2228.89 3052.34C2224.43 3049.87 2213.86 3044.35 2205.41 3040.01C2196.96 3035.67 2186.39 3030.15 2181.93 3027.68C2177.47 3025.33 2167.37 3019.93 2159.62 3015.94C2151.87 3011.95 2140.72 3006.08 2134.97 3003.03C2129.22 2999.98 2118.3 2994.22 2110.9 2990.47C2103.51 2986.59 2092.12 2980.61 2085.66 2977.2C2079.21 2973.8 2069.7 2968.75 2064.53 2966.05C2059.37 2963.35 2048.8 2957.71 2041.05 2953.72C2033.3 2949.73 2022.74 2944.1 2017.57 2941.4C2012.41 2938.7 2002.43 2933.41 1995.27 2929.66C1988.11 2925.9 1977.07 2920.15 1970.61 2916.74C1964.16 2913.34 1954.06 2908.05 1948.31 2905C1942.56 2901.95 1932.46 2896.67 1926 2893.26C1919.55 2889.86 1908.75 2884.22 1901.94 2880.7C1895.13 2877.18 1882.8 2870.6 1874.35 2866.26C1865.9 2861.92 1855.92 2856.63 1852.04 2854.52C1848.17 2852.41 1839.48 2847.83 1832.67 2844.19C1825.86 2840.67 1815.88 2835.39 1810.37 2832.57C1804.85 2829.75 1792.99 2823.53 1783.95 2818.83C1774.91 2814.02 1763.29 2807.91 1758.12 2805.21C1752.96 2802.51 1742.39 2797 1734.65 2792.89C1726.9 2788.9 1716.8 2783.61 1712.34 2781.15C1707.88 2778.8 1697.78 2773.52 1690.03 2769.41C1682.29 2765.42 1671.13 2759.55 1665.38 2756.49C1659.63 2753.44 1649.53 2748.16 1643.08 2744.75C1636.62 2741.35 1626.52 2736.07 1620.54 2732.78L1609.73 2727.03C1592.83 2735.95 1581.32 2742.05 1573.22 2746.16C1565.12 2750.39 1553.74 2756.38 1547.98 2759.43C1542.23 2762.48 1532.37 2767.65 1526.27 2770.93C1520.16 2774.1 1511.36 2778.8 1506.9 2781.15C1502.43 2783.5 1493.28 2788.31 1486.7 2791.83L1474.61 2798.17C1482.36 2802.4 1491.75 2807.33 1500.44 2811.91C1509.13 2816.48 1520.51 2822.47 1525.68 2825.17C1530.84 2827.87 1540.82 2833.15 1547.98 2836.91C1555.15 2840.67 1565.12 2845.95 1570.29 2848.65C1575.45 2851.47 1584.73 2856.28 1590.83 2859.45C1596.94 2862.74 1608.33 2868.61 1616.07 2872.72C1623.82 2876.71 1634.98 2882.58 1640.73 2885.63C1646.48 2888.68 1657.63 2894.55 1665.38 2898.55C1673.13 2902.54 1684.28 2908.41 1690.03 2911.46C1695.79 2914.51 1706.35 2920.03 1713.51 2923.79C1720.68 2927.54 1731.24 2933.06 1736.99 2936.11C1742.75 2939.16 1752.37 2944.21 1758.12 2947.27C1763.88 2950.32 1774.21 2955.72 1781.02 2959.36C1787.83 2962.88 1797.81 2968.16 1803.32 2971.1C1808.84 2973.91 1819.88 2979.78 1827.98 2984.01C1836.08 2988.12 1847.7 2994.22 1853.8 2997.51C1859.91 3000.68 1868.71 3005.38 1873.17 3007.72C1877.64 3010.07 1887.73 3015.36 1895.48 3019.46C1903.23 3023.46 1914.38 3029.33 1920.13 3032.38C1925.89 3035.43 1936.22 3040.83 1943.03 3044.35C1949.83 3047.99 1961.46 3054.1 1968.85 3057.97C1976.25 3061.85 1987.64 3067.71 1994.09 3071.12C2000.55 3074.52 2010.29 3079.69 2015.81 3082.62C2021.33 3085.44 2032.36 3091.31 2040.46 3095.54C2048.57 3099.65 2060.19 3105.75 2066.29 3109.04C2072.4 3112.21 2081.67 3117.14 2086.84 3119.84C2092 3122.54 2101.04 3127.35 2106.79 3130.41C2112.55 3133.46 2123.93 3139.44 2132.03 3143.67C2140.14 3147.78 2150.47 3153.18 2154.93 3155.65C2159.39 3158.11 2169.72 3163.51 2177.82 3167.62C2185.92 3171.85 2196.96 3177.72 2202.47 3180.53C2207.99 3183.47 2218.79 3189.22 2226.54 3193.21C2234.29 3197.2 2244.38 3202.6 2248.84 3204.95C2253.31 3207.42 2263.64 3212.82 2271.74 3217.04C2279.84 3221.15 2291.69 3227.38 2298.15 3230.78C2304.61 3234.18 2314.35 3239.35 2319.87 3242.29C2325.39 3245.1 2336.42 3250.97 2344.52 3255.2C2352.62 3259.31 2363.42 3265.06 2368.59 3267.76C2373.76 3270.46 2382.44 3275.16 2387.96 3277.97C2393.48 3280.91 2405.34 3287.13 2414.37 3291.94C2423.41 3296.64 2436.56 3303.57 2443.72 3307.32C2450.89 3311.08 2460.51 3316.13 2465.21 3318.48C2469.79 3320.94 2473.54 3323.41 2473.43 3323.99C2473.19 3324.46 2467.56 3327.87 2460.75 3331.39C2453.94 3334.91 2443.14 3340.66 2436.68 3344.07C2430.22 3347.47 2419.19 3353.34 2412.03 3356.98C2404.87 3360.74 2395.36 3365.79 2390.9 3368.14C2386.43 3370.6 2375.87 3376.12 2367.42 3380.46C2358.96 3384.81 2348.4 3390.32 2343.94 3392.79C2339.48 3395.14 2329.97 3400.18 2322.81 3403.94C2315.64 3407.58 2304.37 3413.57 2297.56 3417.21C2290.76 3420.73 2280.19 3426.25 2274.09 3429.53C2267.98 3432.7 2256.83 3438.57 2249.43 3442.45C2242.04 3446.32 2230.88 3452.07 2224.78 3455.36C2218.67 3458.53 2208.11 3464.05 2201.3 3467.69C2194.49 3471.21 2184.75 3476.38 2179.58 3479.08C2174.42 3481.78 2163.38 3487.65 2154.93 3491.99C2146.47 3496.33 2135.91 3501.85 2131.45 3504.32C2126.99 3506.66 2117.71 3511.6 2110.9 3515.12C2104.09 3518.76 2093.76 3524.16 2088.01 3527.21C2082.26 3530.26 2071.34 3535.9 2063.94 3539.77C2056.55 3543.76 2045.63 3549.4 2039.88 3552.45C2034.13 3555.5 2022.97 3561.25 2015.22 3565.36C2007.48 3569.35 1996.91 3574.99 1991.75 3577.69C1986.58 3580.39 1977.07 3585.44 1970.61 3588.84C1964.16 3592.25 1953.12 3598.12 1945.96 3601.76C1938.8 3605.51 1927.76 3611.27 1921.31 3614.67C1914.85 3618.07 1904.28 3623.59 1897.83 3627C1891.37 3630.4 1881.27 3635.68 1875.52 3638.74C1869.77 3641.79 1858.85 3647.42 1851.46 3651.3C1844.06 3655.29 1833.73 3660.69 1828.56 3663.39C1823.4 3666.09 1812.83 3671.61 1805.08 3675.72C1797.34 3679.71 1787.24 3684.99 1782.78 3687.46C1778.32 3689.8 1768.22 3695.09 1760.47 3699.2C1752.72 3703.19 1741.57 3709.06 1735.82 3712.11C1730.07 3715.16 1719.74 3720.56 1712.93 3724.08C1706.12 3727.72 1694.85 3733.71 1687.69 3737.35C1680.53 3741.11 1671.02 3746.16 1666.56 3748.5C1662.09 3750.85 1651.53 3756.49 1643.08 3760.83C1634.62 3765.29 1622.77 3771.4 1616.66 3774.68C1610.56 3777.85 1600.23 3783.25 1593.77 3786.66C1587.31 3790.06 1577.22 3795.34 1571.46 3798.4C1565.71 3801.45 1554.79 3807.08 1547.4 3810.96C1540 3814.95 1528.85 3820.7 1522.74 3823.99C1516.64 3827.16 1506.78 3832.33 1501.03 3835.38C1495.27 3838.43 1485.41 3843.6 1479.31 3846.76C1473.2 3850.05 1461.34 3856.27 1452.89 3860.62C1444.44 3864.96 1435.87 3869.54 1433.76 3870.71C1430.12 3872.94 1429.88 3872.94 1426.13 3870.71C1424.13 3869.54 1415.56 3864.96 1407.11 3860.62C1398.65 3856.27 1386.8 3850.05 1380.69 3846.76C1374.59 3843.6 1364.84 3838.43 1358.97 3835.38C1353.1 3832.33 1343.36 3827.16 1337.26 3823.99C1331.15 3820.7 1320 3814.95 1312.6 3810.96C1305.21 3807.08 1294.41 3801.45 1288.54 3798.4C1282.67 3795.34 1272.69 3790.06 1266.23 3786.66C1259.77 3783.25 1249.44 3777.85 1243.34 3774.68C1237.23 3771.4 1225.38 3765.29 1216.92 3760.83C1208.47 3756.49 1197.91 3750.85 1193.44 3748.5C1188.98 3746.16 1179.36 3741.11 1172.31 3737.35C1165.27 3733.71 1153.88 3727.72 1147.07 3724.08C1140.26 3720.56 1130.05 3715.16 1124.18 3712.11C1118.31 3709.06 1107.28 3703.19 1099.53 3699.2C1091.78 3695.09 1081.68 3689.8 1077.22 3687.46C1072.76 3684.99 1062.66 3679.71 1054.92 3675.72C1047.17 3671.61 1036.6 3666.09 1031.44 3663.39C1026.27 3660.69 1015.94 3655.29 1008.54 3651.3C1001.15 3647.42 990.348 3641.79 984.478 3638.74C978.608 3635.68 968.629 3630.4 962.172 3627C955.716 3623.59 945.15 3618.07 938.693 3614.67C932.236 3611.27 921.083 3605.51 914.04 3601.76C906.996 3598.12 895.843 3592.25 889.386 3588.84C882.929 3585.44 873.42 3580.39 868.255 3577.69C863.089 3574.99 852.523 3569.35 844.775 3565.36C837.027 3561.25 825.992 3555.5 820.122 3552.45C814.252 3549.4 803.451 3543.76 796.055 3539.77C788.659 3535.9 777.859 3530.26 771.989 3527.21C766.119 3524.16 755.906 3518.76 749.097 3515.12C742.288 3511.6 733.013 3506.66 728.552 3504.32C724.091 3501.85 713.525 3496.33 705.073 3491.99C696.62 3487.65 685.585 3481.78 680.419 3479.08C675.254 3476.38 665.51 3471.21 658.701 3467.69C651.892 3464.05 641.326 3458.53 635.221 3455.36C629.117 3452.07 617.964 3446.32 610.568 3442.45C603.172 3438.57 592.019 3432.7 585.915 3429.53C579.81 3426.25 569.244 3420.73 562.435 3417.21C555.626 3413.57 544.239 3407.58 537.195 3403.94C530.151 3400.18 520.524 3395.14 516.063 3392.79C511.602 3390.32 501.037 3384.81 492.584 3380.46C484.131 3376.12 473.566 3370.6 469.104 3368.14C464.643 3365.79 455.017 3360.74 447.973 3356.98C440.929 3353.34 429.776 3347.47 423.32 3344.07C416.863 3340.66 406.062 3334.91 399.253 3331.39C392.444 3327.87 386.809 3324.46 386.574 3323.99C386.457 3323.41 390.214 3320.94 394.792 3318.48C399.488 3316.13 409.232 3311.08 416.276 3307.32C423.32 3303.57 436.585 3296.64 445.625 3291.94C454.665 3287.13 466.522 3280.91 472.039 3277.97C477.557 3275.16 486.244 3270.46 491.41 3267.76C496.575 3265.06 507.376 3259.31 515.476 3255.2C523.577 3250.97 534.612 3245.1 540.13 3242.29C545.647 3239.35 555.391 3234.18 561.848 3230.78C568.305 3227.38 580.162 3221.15 588.263 3217.04C596.363 3212.82 606.694 3207.42 611.155 3204.95C615.616 3202.6 625.712 3197.2 633.46 3193.21C641.209 3189.22 652.009 3183.47 657.527 3180.53C663.044 3177.72 674.08 3171.85 682.18 3167.62C690.281 3163.51 700.612 3158.11 705.073 3155.65C709.534 3153.18 719.865 3147.78 727.965 3143.67C736.065 3139.44 747.336 3133.46 753.205 3130.41C759.075 3127.35 767.998 3122.54 773.163 3119.84C778.328 3117.14 787.603 3112.21 793.707 3109.04C799.812 3105.75 811.434 3099.65 819.535 3095.54C827.635 3091.31 838.671 3085.44 844.188 3082.62C849.706 3079.69 859.45 3074.52 865.907 3071.12C872.364 3067.71 883.751 3061.85 891.147 3057.97C898.543 3054.1 910.165 3047.99 916.974 3044.35C923.783 3040.83 933.997 3035.43 939.867 3032.38C945.737 3029.33 956.772 3023.46 964.52 3019.46C972.268 3015.36 982.365 3010.07 986.826 3007.72C991.287 3005.38 1000.09 3000.68 1006.2 2997.51C1012.3 2994.22 1023.92 2988.12 1032.02 2984.01C1040.12 2979.78 1051.16 2973.91 1056.68 2971.1C1062.19 2968.16 1072.17 2962.88 1078.98 2959.36C1085.79 2955.72 1096.01 2950.32 1101.87 2947.27C1107.74 2944.21 1117.14 2939.16 1123.01 2936.11C1128.88 2933.06 1139.44 2927.54 1146.49 2923.79C1153.53 2920.03 1164.1 2914.51 1169.97 2911.46C1175.84 2908.41 1186.87 2902.54 1194.62 2898.55C1202.37 2894.55 1213.4 2888.68 1219.27 2885.63C1225.14 2882.58 1236.18 2876.71 1243.93 2872.72C1251.67 2868.61 1263.06 2862.74 1269.17 2859.45C1275.27 2856.28 1284.54 2851.47 1289.71 2848.65C1294.88 2845.95 1304.97 2840.67 1312.02 2836.91C1319.06 2833.15 1329.16 2827.87 1334.32 2825.17C1339.49 2822.47 1350.87 2816.48 1359.56 2811.91C1368.25 2807.33 1377.64 2802.4 1380.34 2800.87L1385.39 2798.17C1366.72 2788.31 1357.57 2783.5 1353.1 2781.15C1348.64 2778.8 1339.84 2774.1 1333.73 2770.93C1327.63 2767.65 1317.89 2762.48 1312.02 2759.43C1306.15 2756.38 1294.88 2750.39 1286.78 2746.16C1278.68 2742.05 1267.17 2736.07 1261.18 2732.9C1255.31 2729.73 1250.26 2727.14 1250.03 2727.14C1249.91 2727.26 1246.04 2729.26 1241.58 2731.72C1237.12 2734.19 1226.55 2739.71 1218.1 2744.17V2744.17ZM1429.41 225.521C1430.12 225.521 1435.4 227.869 1441.27 231.038C1447.26 234.091 1456.88 239.021 1462.75 242.191C1468.62 245.243 1477.31 249.705 1481.89 252.287C1486.59 254.753 1497.27 260.388 1505.72 264.731C1514.17 269.075 1524.74 274.593 1529.2 277.058C1533.66 279.524 1543.99 284.924 1552.09 289.15C1560.19 293.259 1572.29 299.598 1579.09 303.238C1585.9 306.76 1595.65 311.925 1600.81 314.625C1605.98 317.326 1616.31 322.843 1623.71 326.717C1631.1 330.591 1642.49 336.461 1648.95 339.866C1655.4 343.27 1664.91 348.318 1670.08 351.019C1675.24 353.719 1684.75 358.767 1691.21 362.171C1697.67 365.576 1709.29 371.563 1717.04 375.672C1724.78 379.664 1737.23 386.238 1744.62 390.112C1752.02 393.986 1762.59 399.504 1768.1 402.439C1773.62 405.374 1782.31 409.952 1787.47 412.652C1792.64 415.352 1802.62 420.635 1809.78 424.392C1816.94 428.149 1826.45 433.08 1830.91 435.545C1835.37 438.01 1846.52 443.763 1855.56 448.459C1864.6 453.154 1875.76 459.024 1880.22 461.372C1884.68 463.838 1894.19 468.768 1901.35 472.525C1908.51 476.282 1920.37 482.504 1927.76 486.378C1935.16 490.252 1947.6 496.826 1955.35 500.818C1963.1 504.927 1973.67 510.444 1978.83 513.145C1984 515.845 1993.04 520.541 1998.79 523.593C2004.54 526.645 2013.82 531.459 2019.33 534.394C2024.85 537.329 2035.06 542.729 2042.23 546.486C2049.39 550.242 2061.24 556.464 2068.64 560.338C2076.04 564.213 2087.42 570.082 2093.88 573.487C2100.34 576.891 2110.43 582.174 2116.19 585.227C2121.94 588.279 2132.5 593.797 2139.67 597.553C2146.83 601.193 2155.98 606.123 2160.21 608.354C2164.44 610.702 2173.36 615.398 2180.17 618.92C2186.98 622.442 2198.01 628.312 2204.82 631.834C2211.63 635.473 2222.9 641.46 2230.06 645.099C2237.22 648.856 2248.26 654.609 2254.71 658.013C2261.17 661.418 2272.79 667.405 2280.54 671.514C2288.29 675.623 2298.86 681.14 2304.02 683.841C2309.19 686.541 2319.17 691.824 2326.33 695.58C2333.49 699.337 2343.7 704.737 2349.22 707.672C2354.74 710.49 2364.01 715.421 2369.76 718.473C2375.52 721.525 2386.08 727.16 2393.24 730.8C2400.4 734.556 2412.73 741.013 2420.83 745.24C2428.93 749.466 2440.32 755.453 2446.07 758.505C2451.82 761.675 2460.16 765.902 2472.37 771.889L2463.92 776.115C2459.22 778.463 2449.95 783.276 2443.14 786.798C2436.33 790.438 2425.76 795.955 2419.66 799.125C2413.55 802.412 2401.7 808.634 2393.24 812.978C2384.79 817.322 2374.81 822.605 2370.94 824.718C2367.06 826.831 2357.55 831.879 2349.81 835.87C2342.06 839.862 2331.49 845.497 2326.33 848.197C2321.16 850.897 2312.12 855.711 2306.37 858.763C2300.62 861.815 2289.23 867.803 2281.13 872.029C2273.03 876.138 2262.7 881.538 2258.24 884.003C2253.78 886.469 2242.62 892.221 2233.58 896.917C2224.54 901.613 2212.92 907.718 2207.76 910.418C2202.59 913.118 2193.32 918.049 2187.21 921.218C2181.11 924.506 2170.31 930.141 2163.14 933.897C2155.98 937.654 2145.42 943.172 2139.67 946.224C2133.91 949.276 2123.35 954.794 2116.19 958.551C2109.02 962.308 2098.46 967.825 2092.71 970.878C2086.95 973.93 2075.8 979.8 2068.05 983.791C2060.31 987.783 2050.21 993.066 2045.75 995.531C2041.29 997.996 2031.19 1003.28 2023.44 1007.27C2015.69 1011.38 2004.89 1017.01 1999.38 1019.95C1993.86 1022.88 1984.94 1027.58 1979.42 1030.4C1973.9 1033.22 1964.63 1038.03 1958.87 1041.08C1953.12 1044.13 1941.15 1050.47 1932.46 1055.05C1923.77 1059.63 1912.15 1065.73 1906.63 1068.55C1901.11 1071.49 1890.9 1076.89 1883.74 1080.64C1876.58 1084.4 1865.31 1090.39 1858.5 1093.91C1851.69 1097.43 1841.95 1102.6 1836.78 1105.18C1831.62 1107.88 1821.05 1113.52 1813.3 1117.51C1805.55 1121.62 1794.17 1127.6 1788.06 1130.89C1781.96 1134.06 1772.68 1138.99 1767.52 1141.69C1762.35 1144.39 1751.9 1149.79 1744.27 1153.78C1736.76 1157.77 1724.55 1164.11 1717.39 1167.99C1710.11 1171.74 1699.66 1177.26 1694.14 1180.08C1688.63 1183.01 1678.65 1188.3 1671.84 1191.82C1665.03 1195.46 1655.05 1200.74 1649.53 1203.68C1644.01 1206.49 1632.98 1212.36 1624.88 1216.47C1616.78 1220.7 1605.98 1226.45 1600.81 1229.15C1595.65 1231.85 1585.32 1237.25 1577.92 1241.24C1570.52 1245.12 1559.61 1250.75 1553.85 1253.81C1548.1 1256.86 1538.47 1261.91 1532.72 1264.96C1526.97 1268.01 1515.82 1273.76 1508.07 1277.87C1500.32 1281.86 1487.17 1288.79 1478.72 1293.25C1470.27 1297.59 1460.76 1302.64 1457.59 1304.4C1454.3 1306.05 1446.79 1309.92 1430 1318.37L1419.08 1312.97C1413.21 1309.92 1405.58 1306.05 1402.41 1304.4C1399.12 1302.64 1389.73 1297.59 1381.28 1293.25C1372.83 1288.79 1359.68 1281.86 1351.93 1277.87C1344.18 1273.76 1333.15 1268.01 1327.28 1264.96C1321.41 1261.91 1312.02 1256.86 1306.15 1253.81C1300.28 1250.75 1289.48 1245.12 1282.08 1241.24C1274.68 1237.25 1264.35 1231.85 1259.19 1229.15C1254.02 1226.45 1243.22 1220.7 1235.12 1216.47C1227.02 1212.36 1215.98 1206.49 1210.47 1203.68C1204.95 1200.74 1194.97 1195.46 1188.16 1191.82C1181.35 1188.3 1171.37 1183.01 1165.86 1180.08C1160.34 1177.26 1150.01 1171.86 1142.96 1168.11C1135.92 1164.35 1123.71 1158.01 1115.96 1154.02C1108.21 1149.91 1097.65 1144.39 1092.48 1141.69C1087.32 1138.99 1078.04 1134.06 1071.94 1130.89C1065.83 1127.6 1054.45 1121.62 1046.7 1117.51C1038.95 1113.52 1028.38 1107.88 1023.22 1105.18C1018.05 1102.6 1008.31 1097.43 1001.5 1093.91C994.691 1090.39 983.304 1084.4 976.26 1080.64C969.216 1076.89 958.885 1071.49 953.368 1068.55C947.85 1065.73 936.228 1059.63 927.54 1055.05C918.853 1050.47 906.996 1044.13 901.126 1041.08C895.256 1038.03 886.099 1033.22 880.581 1030.4C875.064 1027.58 866.142 1022.88 860.624 1019.95C855.106 1017.01 844.306 1011.38 836.557 1007.27C828.809 1003.28 818.713 997.996 814.252 995.531C809.791 993.066 799.695 987.783 791.947 983.791C784.198 979.8 773.163 973.93 767.293 970.878C761.423 967.825 750.858 962.308 743.814 958.551C736.77 954.794 726.204 949.276 720.334 946.224C714.464 943.172 703.899 937.654 696.855 933.897C689.811 930.141 679.715 924.858 674.549 922.158C669.384 919.457 660.11 914.527 654.005 911.357C647.9 908.07 635.456 901.613 626.417 896.917C617.377 892.221 606.224 886.469 601.763 884.003C597.302 881.538 586.971 876.138 578.871 872.029C570.77 867.803 559.5 861.815 553.63 858.763C547.761 855.711 538.838 850.897 533.673 848.197C528.507 845.497 517.942 839.862 510.193 835.87C502.445 831.879 492.936 826.831 489.062 824.718C485.188 822.605 475.209 817.322 466.757 812.978C458.304 808.634 446.447 802.412 440.342 799.125C434.238 795.955 423.672 790.438 416.863 786.798C410.054 783.276 400.779 778.463 387.631 771.889L395.496 768.015C399.84 765.902 408.058 761.675 413.928 758.505C419.798 755.453 431.068 749.466 439.168 745.24C447.269 741.013 459.713 734.556 466.757 730.8C473.8 727.16 484.366 721.525 490.236 718.473C496.106 715.421 505.263 710.49 510.78 707.672C516.298 704.737 526.629 699.337 533.673 695.58C540.717 691.824 550.813 686.541 555.978 683.841C561.144 681.14 571.71 675.623 579.458 671.514C587.206 667.405 598.828 661.418 605.285 658.013C611.742 654.609 622.895 648.856 629.939 645.099C636.982 641.46 648.37 635.473 655.179 631.834C661.988 628.312 673.023 622.442 679.832 618.92C686.641 615.398 695.563 610.702 699.79 608.354C704.016 606.123 713.29 601.193 720.334 597.553C727.378 593.797 737.944 588.279 743.814 585.227C749.684 582.174 759.662 576.891 766.119 573.487C772.576 570.082 783.964 564.213 791.36 560.338C798.756 556.464 810.73 550.242 817.774 546.486C824.818 542.729 835.149 537.329 840.666 534.394C846.184 531.459 855.341 526.645 861.211 523.593C867.081 520.541 876.003 515.845 881.168 513.145C886.334 510.444 896.9 504.927 904.648 500.818C912.396 496.826 924.84 490.252 932.236 486.378C939.632 482.504 951.607 476.282 958.65 472.525C965.694 468.768 975.321 463.838 979.782 461.372C984.243 459.024 995.396 453.154 1004.44 448.459C1013.47 443.763 1024.63 438.01 1029.09 435.545C1033.55 433.08 1043.18 428.149 1050.22 424.392C1057.26 420.635 1067.59 415.235 1073.11 412.3C1078.63 409.483 1087.32 404.904 1092.48 402.087C1097.65 399.386 1108.1 393.986 1115.61 389.995C1123.24 386.003 1135.69 379.429 1143.2 375.555C1150.83 371.563 1162.33 365.576 1168.79 362.171C1175.25 358.767 1184.76 353.719 1189.92 351.019C1195.09 348.318 1204.6 343.27 1211.05 339.866C1217.51 336.461 1228.9 330.591 1236.29 326.717C1243.69 322.843 1254.02 317.326 1259.19 314.625C1264.35 311.925 1274.1 306.76 1280.91 303.238C1287.71 299.598 1299.81 293.259 1307.91 289.15C1316.01 284.924 1326.34 279.524 1330.8 277.058C1335.26 274.593 1345.83 269.075 1354.28 264.731C1362.73 260.388 1373.41 254.753 1377.99 252.287C1382.69 249.705 1391.38 245.243 1397.25 242.191C1403.12 239.021 1412.51 234.091 1418.03 231.156C1423.66 228.103 1428.83 225.638 1429.41 225.521V225.521ZM1429.77 1603.65C1429.88 1603.65 1445.97 1611.75 1465.57 1621.73C1485.06 1631.59 1515.82 1647.32 1533.9 1656.48C1551.98 1665.75 1580.74 1680.43 1597.88 1689.12C1615.02 1697.8 1642.25 1711.66 1658.34 1719.87C1674.42 1728.09 1701.66 1741.94 1718.8 1750.75C1735.94 1759.44 1763.64 1773.52 1780.43 1782.09C1797.22 1790.66 1824.45 1804.52 1840.89 1812.97C1857.33 1821.31 1885.38 1835.51 1903.11 1844.55C1920.84 1853.59 1948.9 1867.91 1965.33 1876.25C1981.77 1884.7 2009 1898.55 2025.79 1907.12C2042.58 1915.69 2070.64 1929.9 2088.01 1938.82C2105.39 1947.74 2133.68 1962.06 2150.82 1970.75C2167.96 1979.56 2195.66 1993.64 2212.45 2002.21C2229.24 2010.78 2256.24 2024.52 2272.32 2032.74C2288.41 2040.96 2301.79 2047.77 2302.03 2047.88C2302.14 2047.88 2293.93 2052.34 2283.83 2057.51C2273.62 2062.79 2252.37 2073.71 2236.52 2081.81C2220.67 2089.79 2194.49 2103.18 2178.41 2111.39C2162.21 2119.61 2137.43 2132.29 2123.23 2139.57C2109.02 2146.85 2081.55 2160.82 2062.18 2170.68C2042.81 2180.54 2011.94 2196.27 1993.51 2205.66C1975.07 2214.94 1947.96 2228.79 1933.05 2236.42C1918.14 2244.05 1891.02 2257.91 1872.59 2267.3C1854.16 2276.57 1826.45 2290.78 1810.95 2298.64C1795.46 2306.51 1767.16 2320.95 1748.15 2330.58C1729.13 2340.32 1701.42 2354.41 1686.51 2362.04C1671.6 2369.67 1644.95 2383.17 1627.23 2392.21C1609.5 2401.25 1582.03 2415.34 1566.18 2423.32C1550.33 2431.42 1522.04 2445.86 1503.37 2455.37C1484.71 2464.88 1460.52 2477.21 1430 2492.35L1410.28 2482.49C1399.48 2477.21 1375.41 2464.88 1356.63 2455.37C1337.84 2445.86 1309.67 2431.42 1293.82 2423.32C1277.97 2415.34 1250.5 2401.25 1232.77 2392.21C1215.05 2383.17 1188.4 2369.67 1173.49 2362.04C1158.58 2354.41 1130.87 2340.32 1111.85 2330.58C1092.84 2320.95 1064.54 2306.51 1049.05 2298.64C1033.55 2290.78 1005.84 2276.57 987.413 2267.3C968.981 2257.91 941.863 2244.05 926.953 2236.42C912.044 2228.79 884.925 2214.94 866.494 2205.66C848.062 2196.27 817.187 2180.54 797.816 2170.68C778.446 2160.82 750.975 2146.85 736.77 2139.57C722.565 2132.29 697.677 2119.61 681.593 2111.39C665.392 2103.18 639.33 2089.79 623.482 2081.81C607.633 2073.71 586.384 2062.79 576.171 2057.51C566.074 2052.34 557.857 2047.88 557.974 2047.88C558.209 2047.77 571.475 2040.96 587.676 2032.74C603.759 2024.52 630.76 2010.78 647.548 2002.21C664.336 1993.64 692.042 1979.56 709.182 1970.75C726.322 1962.06 754.614 1947.74 771.989 1938.82C789.364 1929.9 817.422 1915.69 834.209 1907.12C850.997 1898.55 878.233 1884.7 894.669 1876.25C911.105 1867.91 939.163 1853.59 956.889 1844.55C974.616 1835.51 1002.67 1821.31 1019.11 1812.97C1035.55 1804.52 1062.78 1790.66 1079.57 1782.09C1096.36 1773.52 1124.06 1759.44 1141.2 1750.75C1158.34 1741.94 1185.46 1728.09 1201.66 1719.87C1217.75 1711.66 1244.98 1697.8 1262.12 1689.12C1279.26 1680.43 1309.9 1664.81 1330.21 1654.37C1350.52 1644.04 1381.16 1628.42 1398.3 1619.62C1415.44 1610.93 1429.53 1603.77 1429.65 1603.65H1429.77ZM1423.07 1824.12C1420.84 1825.41 1410.51 1831.28 1400.18 1837.27C1389.85 1843.26 1373.06 1853 1362.85 1858.87C1352.75 1864.74 1342.42 1870.73 1339.96 1872.02C1337.61 1873.43 1327.16 1879.42 1316.83 1885.4C1306.5 1891.39 1296.17 1897.38 1293.7 1898.79C1291.35 1900.2 1282.67 1905.13 1274.33 1909.94C1266.11 1914.64 1257.78 1919.45 1255.78 1920.62C1253.79 1921.8 1245.69 1926.49 1237.59 1931.19C1229.49 1935.89 1220.56 1941.05 1217.63 1942.58C1214.69 1944.22 1210 1947.04 1207.06 1948.8C1204.13 1950.56 1194.15 1956.43 1184.76 1961.71C1175.37 1967.11 1166.21 1972.4 1164.21 1973.45C1162.22 1974.63 1152.24 1980.38 1141.91 1986.37C1131.58 1992.35 1121.01 1998.46 1118.43 1999.87C1115.85 2001.28 1107.63 2006.09 1100.23 2010.43C1092.84 2014.89 1084.62 2019.59 1082.03 2021C1079.45 2022.52 1070.76 2027.46 1062.66 2032.15C1054.56 2036.85 1046.46 2041.54 1044.47 2042.72C1042.47 2043.77 1039.77 2045.42 1038.36 2046.36L1035.78 2048C1041.65 2051.4 1044.82 2053.4 1046.82 2054.46C1048.81 2055.63 1059.03 2061.5 1069.71 2067.61C1080.39 2073.83 1097.53 2083.69 1107.86 2089.68C1118.19 2095.66 1128.52 2101.65 1130.75 2102.94C1132.99 2104.23 1136.98 2106.46 1139.56 2107.99C1142.14 2109.4 1152.12 2115.15 1161.86 2120.79C1171.49 2126.42 1186.52 2134.99 1195.09 2140.04C1203.66 2144.97 1212.11 2149.78 1213.87 2150.84C1215.63 2151.9 1227.37 2158.71 1239.93 2165.98C1252.5 2173.26 1268.7 2182.54 1275.74 2186.53C1282.78 2190.52 1291.59 2195.57 1295.11 2197.68C1298.63 2199.8 1303.09 2202.5 1305.09 2203.55C1307.09 2204.61 1315.19 2209.42 1323.29 2214.12C1331.39 2218.81 1340.07 2223.74 1342.66 2225.27C1345.24 2226.68 1355.8 2232.78 1366.14 2238.77C1376.47 2244.76 1387.85 2251.22 1391.38 2253.21C1394.9 2255.09 1398.42 2257.08 1399.01 2257.67C1399.59 2258.14 1406.76 2262.25 1414.86 2266.83C1422.96 2271.41 1429.77 2275.16 1430.12 2275.16C1430.47 2275.16 1437.28 2271.41 1445.38 2266.83C1453.48 2262.25 1460.52 2258.14 1461.23 2257.67C1461.93 2257.08 1465.34 2255.09 1468.86 2253.21C1472.38 2251.22 1483.77 2244.76 1494.1 2238.77C1504.43 2232.78 1515 2226.68 1517.58 2225.27C1520.16 2223.74 1528.85 2218.81 1536.95 2214.12C1545.05 2209.42 1553.15 2204.61 1555.15 2203.55C1557.14 2202.5 1561.6 2199.8 1565.12 2197.68C1568.65 2195.57 1577.33 2190.52 1584.49 2186.53C1591.66 2182.54 1607.74 2173.26 1620.3 2165.98C1632.86 2158.71 1644.6 2151.9 1646.36 2150.84C1648.12 2149.78 1656.58 2144.97 1665.15 2140.04C1673.72 2134.99 1688.63 2126.42 1698.37 2120.79C1708 2115.15 1718.09 2109.4 1720.68 2107.99C1723.26 2106.46 1727.25 2104.23 1729.48 2102.94C1731.71 2101.65 1742.04 2095.66 1752.37 2089.68C1762.7 2083.69 1779.84 2073.83 1790.53 2067.61C1801.21 2061.5 1811.42 2055.63 1813.42 2054.46C1815.41 2053.4 1818.58 2051.4 1820.7 2050.23L1824.45 2048C1820.46 2045.42 1817.76 2043.77 1815.77 2042.72C1813.77 2041.54 1805.67 2036.85 1797.57 2032.15C1789.47 2027.46 1780.78 2022.52 1778.2 2021C1775.62 2019.59 1767.4 2014.89 1760 2010.43C1752.61 2006.09 1744.39 2001.28 1741.81 1999.87C1739.22 1998.46 1728.66 1992.35 1718.33 1986.37C1708 1980.38 1698.02 1974.63 1696.02 1973.45C1694.03 1972.4 1684.87 1967.11 1675.48 1961.71C1666.09 1956.43 1656.11 1950.56 1653.17 1948.8C1650.24 1947.04 1645.54 1944.22 1642.61 1942.58C1639.67 1941.05 1630.75 1935.89 1622.65 1931.19C1614.55 1926.49 1606.45 1921.8 1604.45 1920.62C1602.46 1919.45 1594.12 1914.64 1585.9 1909.94C1577.57 1905.13 1568.88 1900.2 1566.53 1898.79C1564.07 1897.38 1553.74 1891.39 1543.41 1885.4C1533.07 1879.42 1522.63 1873.43 1520.28 1872.02C1517.81 1870.73 1507.48 1864.74 1497.39 1858.87C1487.17 1853 1470.38 1843.26 1460.05 1837.27C1449.72 1831.28 1439.39 1825.41 1437.16 1824.12C1434.93 1822.83 1432.58 1821.31 1431.88 1820.72C1431.17 1820.13 1430.47 1819.66 1430.12 1819.66C1429.65 1819.66 1428.94 1820.13 1428.36 1820.72C1427.65 1821.31 1425.3 1822.83 1423.07 1824.12V1824.12Z" fill="white"/>
</svg>
